<mxfile host="65bd71144e">
    <diagram id="Zbu60tY-oMu6k1giYZPg" name="Page-1">
        <mxGraphModel dx="1940" dy="851" grid="1" gridSize="10" guides="1" tooltips="1" connect="1" arrows="1" fold="1" page="1" pageScale="1" pageWidth="1700" pageHeight="1100" math="0" shadow="0">
            <root>
                <mxCell id="0"/>
                <mxCell id="1" parent="0"/>
                <mxCell id="7" value="CENTER COURT&lt;br&gt;Thursday&lt;br&gt;- Match 1&lt;br&gt;- Match 2&lt;br&gt;- Match 3&lt;br&gt;- Match 4&lt;br&gt;- Match 5" style="whiteSpace=wrap;html=1;aspect=fixed;" vertex="1" parent="1">
                    <mxGeometry x="50" y="40" width="160" height="160" as="geometry"/>
                </mxCell>
                <mxCell id="8" value="CENTER COURT&lt;br&gt;Friday&lt;br&gt;- Match 1&lt;br&gt;- Match 2&lt;br&gt;- Match 3&lt;br&gt;- Match 4&lt;br&gt;- Match 5" style="whiteSpace=wrap;html=1;aspect=fixed;" vertex="1" parent="1">
                    <mxGeometry x="220" y="40" width="160" height="160" as="geometry"/>
                </mxCell>
                <mxCell id="9" value="CENTER COURT&lt;br&gt;Saturday&lt;br&gt;- Match 1&lt;br&gt;- Match 2&lt;br&gt;- Match 3&lt;br&gt;- Match 4&lt;br&gt;- Match 5" style="whiteSpace=wrap;html=1;aspect=fixed;" vertex="1" parent="1">
                    <mxGeometry x="390" y="40" width="160" height="160" as="geometry"/>
                </mxCell>
                <mxCell id="10" value="CENTER COURT&lt;br&gt;Sunday&lt;br&gt;- Match 1&lt;br&gt;- Match 2&lt;br&gt;- Match 3&lt;br&gt;- Match 4&lt;br&gt;- Match 5" style="whiteSpace=wrap;html=1;aspect=fixed;" vertex="1" parent="1">
                    <mxGeometry x="560" y="40" width="160" height="160" as="geometry"/>
                </mxCell>
                <mxCell id="11" value="Grand Stand 1&lt;br&gt;Thursday&lt;br&gt;- Match 1&lt;br&gt;- Match 2&lt;br&gt;- Match 3&lt;br&gt;- Match 4&lt;br&gt;- Match 5" style="whiteSpace=wrap;html=1;aspect=fixed;" vertex="1" parent="1">
                    <mxGeometry x="50" y="210" width="160" height="160" as="geometry"/>
                </mxCell>
                <mxCell id="12" value="Grand Stand 1&lt;br&gt;Friday&lt;br&gt;- Match 1&lt;br&gt;- Match 2&lt;br&gt;- Match 3&lt;br&gt;- Match 4&lt;br&gt;- Match 5" style="whiteSpace=wrap;html=1;aspect=fixed;" vertex="1" parent="1">
                    <mxGeometry x="220" y="210" width="160" height="160" as="geometry"/>
                </mxCell>
                <mxCell id="13" value="Grand Stand 1&lt;br&gt;Saturday&lt;br&gt;- Match 1&lt;br&gt;- Match 2&lt;br&gt;- Match 3" style="whiteSpace=wrap;html=1;aspect=fixed;" vertex="1" parent="1">
                    <mxGeometry x="390" y="210" width="160" height="160" as="geometry"/>
                </mxCell>
                <mxCell id="15" value="Grand Stand 2&lt;br&gt;Thursday&lt;br&gt;- Match 1&lt;br&gt;- Match 2&lt;br&gt;- Match 3&lt;br&gt;- Match 4&lt;br&gt;" style="whiteSpace=wrap;html=1;aspect=fixed;" vertex="1" parent="1">
                    <mxGeometry x="50" y="380" width="160" height="160" as="geometry"/>
                </mxCell>
                <mxCell id="16" value="Grand Stand 2&lt;br&gt;Friday&lt;br&gt;- Match 1&lt;br&gt;- Match 2" style="whiteSpace=wrap;html=1;aspect=fixed;" vertex="1" parent="1">
                    <mxGeometry x="220" y="380" width="160" height="160" as="geometry"/>
                </mxCell>
                <mxCell id="17" value="Grand Stand 3&lt;br&gt;Thursday&lt;br&gt;- Match 1&lt;br&gt;- Match 2&lt;br&gt;- Match 3&lt;br&gt;- Match 4" style="whiteSpace=wrap;html=1;aspect=fixed;" vertex="1" parent="1">
                    <mxGeometry x="50" y="550" width="160" height="160" as="geometry"/>
                </mxCell>
                <mxCell id="18" value="Grand Stand 3&lt;br&gt;Friday&lt;br&gt;- Match 1&lt;br&gt;- Match 2" style="whiteSpace=wrap;html=1;aspect=fixed;" vertex="1" parent="1">
                    <mxGeometry x="220" y="550" width="160" height="160" as="geometry"/>
                </mxCell>
                <mxCell id="19" value="Grand Stand 4&lt;br&gt;Thursday&lt;br&gt;- Match 1&lt;br&gt;- Match 2&lt;br&gt;- Match 3&lt;br&gt;- Match 4" style="whiteSpace=wrap;html=1;aspect=fixed;" vertex="1" parent="1">
                    <mxGeometry x="50" y="720" width="160" height="160" as="geometry"/>
                </mxCell>
                <mxCell id="20" value="Grand Stand 4&lt;br&gt;Friday&lt;br&gt;- Match 1&lt;br&gt;- Match 2" style="whiteSpace=wrap;html=1;aspect=fixed;" vertex="1" parent="1">
                    <mxGeometry x="220" y="720" width="160" height="160" as="geometry"/>
                </mxCell>
                <mxCell id="21" value="Grand Stand 5&lt;br&gt;Thursday&lt;br&gt;- Match 1" style="whiteSpace=wrap;html=1;aspect=fixed;" vertex="1" parent="1">
                    <mxGeometry x="220" y="890" width="160" height="160" as="geometry"/>
                </mxCell>
                <mxCell id="22" value="Grand Stand 6&lt;br&gt;Thursday&lt;br&gt;- Match 1&lt;br&gt;" style="whiteSpace=wrap;html=1;aspect=fixed;" vertex="1" parent="1">
                    <mxGeometry x="220" y="1060" width="160" height="160" as="geometry"/>
                </mxCell>
                <mxCell id="23" value="&lt;font style=&quot;font-size: 18px;&quot;&gt;CENTER COURT&lt;br&gt;Thursday&lt;br&gt;- Match 1&lt;br&gt;- Match 2&lt;br&gt;- Match 3&lt;br&gt;- Match 4&lt;br&gt;- Match 5&lt;/font&gt;" style="whiteSpace=wrap;html=1;aspect=fixed;" vertex="1" parent="1">
                    <mxGeometry x="890" y="40" width="160" height="160" as="geometry"/>
                </mxCell>
                <mxCell id="24" value="CENTER COURT&lt;br&gt;Friday&lt;br&gt;- Match 1&lt;br&gt;- Match 2&lt;br&gt;- Match 3&lt;br&gt;- Match 4&lt;br&gt;- Match 5" style="whiteSpace=wrap;html=1;aspect=fixed;" vertex="1" parent="1">
                    <mxGeometry x="1060" y="40" width="160" height="160" as="geometry"/>
                </mxCell>
                <mxCell id="25" value="CENTER COURT&lt;br&gt;Saturday&lt;br&gt;- Match 1&lt;br&gt;- Match 2&lt;br&gt;- Match 3&lt;br&gt;- Match 4&lt;br&gt;- Match 5" style="whiteSpace=wrap;html=1;aspect=fixed;" vertex="1" parent="1">
                    <mxGeometry x="1230" y="40" width="160" height="160" as="geometry"/>
                </mxCell>
                <mxCell id="26" value="CENTER COURT&lt;br&gt;Sunday&lt;br&gt;- Match 1&lt;br&gt;- Match 2&lt;br&gt;- Match 3&lt;br&gt;- Match 4&lt;br&gt;- Match 5" style="whiteSpace=wrap;html=1;aspect=fixed;" vertex="1" parent="1">
                    <mxGeometry x="1400" y="40" width="160" height="160" as="geometry"/>
                </mxCell>
                <mxCell id="34" value="Center" style="rounded=1;whiteSpace=wrap;html=1;fillColor=#3761D4;" vertex="1" parent="1">
                    <mxGeometry x="960" width="80" height="30" as="geometry"/>
                </mxCell>
                <mxCell id="35" value="GS1" style="rounded=1;whiteSpace=wrap;html=1;" vertex="1" parent="1">
                    <mxGeometry x="1050" width="80" height="30" as="geometry"/>
                </mxCell>
                <mxCell id="36" value="GS2" style="rounded=1;whiteSpace=wrap;html=1;" vertex="1" parent="1">
                    <mxGeometry x="1140" width="80" height="30" as="geometry"/>
                </mxCell>
                <mxCell id="37" value="GS3" style="rounded=1;whiteSpace=wrap;html=1;" vertex="1" parent="1">
                    <mxGeometry x="1230" width="80" height="30" as="geometry"/>
                </mxCell>
                <mxCell id="38" value="GS4" style="rounded=1;whiteSpace=wrap;html=1;" vertex="1" parent="1">
                    <mxGeometry x="1320" width="80" height="30" as="geometry"/>
                </mxCell>
                <mxCell id="39" value="GS5" style="rounded=1;whiteSpace=wrap;html=1;" vertex="1" parent="1">
                    <mxGeometry x="1410" width="80" height="30" as="geometry"/>
                </mxCell>
                <mxCell id="40" value="" style="endArrow=none;html=1;" edge="1" parent="1">
                    <mxGeometry width="50" height="50" relative="1" as="geometry">
                        <mxPoint x="810" y="1210" as="sourcePoint"/>
                        <mxPoint x="810" as="targetPoint"/>
                    </mxGeometry>
                </mxCell>
                <mxCell id="44" value="" style="rounded=0;whiteSpace=wrap;html=1;fillColor=none;" vertex="1" parent="1">
                    <mxGeometry x="890" y="280" width="670" height="440" as="geometry"/>
                </mxCell>
                <mxCell id="46" value="" style="endArrow=classic;startArrow=classic;html=1;curved=1;" edge="1" parent="1">
                    <mxGeometry width="50" height="50" relative="1" as="geometry">
                        <mxPoint x="880" y="320" as="sourcePoint"/>
                        <mxPoint x="930" y="100" as="targetPoint"/>
                        <Array as="points">
                            <mxPoint x="800" y="170"/>
                            <mxPoint x="901" y="113"/>
                        </Array>
                    </mxGeometry>
                </mxCell>
                <mxCell id="47" value="" style="fillColor=#F1F2F4;strokeColor=none;rounded=1;arcSize=50;sketch=0;hachureGap=4;pointerEvents=0;fontFamily=Architects Daughter;fontSource=https%3A%2F%2Ffonts.googleapis.com%2Fcss%3Ffamily%3DArchitects%2BDaughter;fontSize=20;" vertex="1" parent="1">
                    <mxGeometry x="1010" y="150" width="40" height="20" as="geometry"/>
                </mxCell>
                <mxCell id="48" value="" style="shape=ellipse;strokeColor=none;fillColor=#C2C7D0;sketch=0;hachureGap=4;pointerEvents=0;fontFamily=Architects Daughter;fontSource=https%3A%2F%2Ffonts.googleapis.com%2Fcss%3Ffamily%3DArchitects%2BDaughter;fontSize=20;" vertex="1" parent="47">
                    <mxGeometry y="0.5" width="16" height="16" relative="1" as="geometry">
                        <mxPoint x="2" y="-8" as="offset"/>
                    </mxGeometry>
                </mxCell>
                <mxCell id="49" value="" style="html=1;shadow=0;dashed=0;shape=mxgraph.atlassian.x;strokeColor=#C2C7D0;strokeWidth=2;sketch=0;hachureGap=4;pointerEvents=0;fontFamily=Architects Daughter;fontSource=https%3A%2F%2Ffonts.googleapis.com%2Fcss%3Ffamily%3DArchitects%2BDaughter;fontSize=20;fillColor=none;" vertex="1" parent="47">
                    <mxGeometry x="1" y="0.5" width="6" height="6" relative="1" as="geometry">
                        <mxPoint x="-12" y="-3" as="offset"/>
                    </mxGeometry>
                </mxCell>
                <mxCell id="56" value="" style="fillColor=#F1F2F4;strokeColor=none;rounded=1;arcSize=50;sketch=0;hachureGap=4;pointerEvents=0;fontFamily=Architects Daughter;fontSource=https%3A%2F%2Ffonts.googleapis.com%2Fcss%3Ffamily%3DArchitects%2BDaughter;fontSize=20;" vertex="1" parent="1">
                    <mxGeometry x="1010" y="130" width="40" height="20" as="geometry"/>
                </mxCell>
                <mxCell id="57" value="" style="shape=ellipse;strokeColor=none;fillColor=#C2C7D0;sketch=0;hachureGap=4;pointerEvents=0;fontFamily=Architects Daughter;fontSource=https%3A%2F%2Ffonts.googleapis.com%2Fcss%3Ffamily%3DArchitects%2BDaughter;fontSize=20;" vertex="1" parent="56">
                    <mxGeometry y="0.5" width="16" height="16" relative="1" as="geometry">
                        <mxPoint x="2" y="-8" as="offset"/>
                    </mxGeometry>
                </mxCell>
                <mxCell id="58" value="" style="html=1;shadow=0;dashed=0;shape=mxgraph.atlassian.x;strokeColor=#C2C7D0;strokeWidth=2;sketch=0;hachureGap=4;pointerEvents=0;fontFamily=Architects Daughter;fontSource=https%3A%2F%2Ffonts.googleapis.com%2Fcss%3Ffamily%3DArchitects%2BDaughter;fontSize=20;fillColor=none;" vertex="1" parent="56">
                    <mxGeometry x="1" y="0.5" width="6" height="6" relative="1" as="geometry">
                        <mxPoint x="-12" y="-3" as="offset"/>
                    </mxGeometry>
                </mxCell>
                <mxCell id="64" value="" style="fillColor=#F1F2F4;strokeColor=none;rounded=1;arcSize=50;sketch=0;hachureGap=4;pointerEvents=0;fontFamily=Architects Daughter;fontSource=https%3A%2F%2Ffonts.googleapis.com%2Fcss%3Ffamily%3DArchitects%2BDaughter;fontSize=20;" vertex="1" parent="1">
                    <mxGeometry x="1011" y="169" width="40" height="20" as="geometry"/>
                </mxCell>
                <mxCell id="65" value="" style="shape=ellipse;strokeColor=none;fillColor=#C2C7D0;sketch=0;hachureGap=4;pointerEvents=0;fontFamily=Architects Daughter;fontSource=https%3A%2F%2Ffonts.googleapis.com%2Fcss%3Ffamily%3DArchitects%2BDaughter;fontSize=20;" vertex="1" parent="64">
                    <mxGeometry y="0.5" width="16" height="16" relative="1" as="geometry">
                        <mxPoint x="2" y="-8" as="offset"/>
                    </mxGeometry>
                </mxCell>
                <mxCell id="66" value="" style="html=1;shadow=0;dashed=0;shape=mxgraph.atlassian.x;strokeColor=#C2C7D0;strokeWidth=2;sketch=0;hachureGap=4;pointerEvents=0;fontFamily=Architects Daughter;fontSource=https%3A%2F%2Ffonts.googleapis.com%2Fcss%3Ffamily%3DArchitects%2BDaughter;fontSize=20;fillColor=none;" vertex="1" parent="64">
                    <mxGeometry x="1" y="0.5" width="6" height="6" relative="1" as="geometry">
                        <mxPoint x="-12" y="-3" as="offset"/>
                    </mxGeometry>
                </mxCell>
                <mxCell id="67" value="" style="fillColor=#F1F2F4;strokeColor=none;rounded=1;arcSize=50;sketch=0;hachureGap=4;pointerEvents=0;fontFamily=Architects Daughter;fontSource=https%3A%2F%2Ffonts.googleapis.com%2Fcss%3Ffamily%3DArchitects%2BDaughter;fontSize=20;" vertex="1" parent="1">
                    <mxGeometry x="1011" y="110" width="40" height="20" as="geometry"/>
                </mxCell>
                <mxCell id="68" value="" style="shape=ellipse;strokeColor=none;fillColor=#C2C7D0;sketch=0;hachureGap=4;pointerEvents=0;fontFamily=Architects Daughter;fontSource=https%3A%2F%2Ffonts.googleapis.com%2Fcss%3Ffamily%3DArchitects%2BDaughter;fontSize=20;" vertex="1" parent="67">
                    <mxGeometry y="0.5" width="16" height="16" relative="1" as="geometry">
                        <mxPoint x="2" y="-8" as="offset"/>
                    </mxGeometry>
                </mxCell>
                <mxCell id="69" value="" style="html=1;shadow=0;dashed=0;shape=mxgraph.atlassian.x;strokeColor=#C2C7D0;strokeWidth=2;sketch=0;hachureGap=4;pointerEvents=0;fontFamily=Architects Daughter;fontSource=https%3A%2F%2Ffonts.googleapis.com%2Fcss%3Ffamily%3DArchitects%2BDaughter;fontSize=20;fillColor=none;" vertex="1" parent="67">
                    <mxGeometry x="1" y="0.5" width="6" height="6" relative="1" as="geometry">
                        <mxPoint x="-12" y="-3" as="offset"/>
                    </mxGeometry>
                </mxCell>
                <mxCell id="70" value="" style="fillColor=#36B37E;strokeColor=none;rounded=1;arcSize=50;sketch=0;hachureGap=4;pointerEvents=0;fontFamily=Architects Daughter;fontSource=https%3A%2F%2Ffonts.googleapis.com%2Fcss%3Ffamily%3DArchitects%2BDaughter;fontSize=20;" vertex="1" parent="67">
                    <mxGeometry y="-20" width="40" height="20" as="geometry"/>
                </mxCell>
                <mxCell id="71" value="" style="shape=ellipse;strokeColor=none;fillColor=#ffffff;sketch=0;hachureGap=4;pointerEvents=0;fontFamily=Architects Daughter;fontSource=https%3A%2F%2Ffonts.googleapis.com%2Fcss%3Ffamily%3DArchitects%2BDaughter;fontSize=20;" vertex="1" parent="70">
                    <mxGeometry x="1" y="0.5" width="16" height="16" relative="1" as="geometry">
                        <mxPoint x="-18" y="-8" as="offset"/>
                    </mxGeometry>
                </mxCell>
                <mxCell id="72" value="" style="html=1;shadow=0;dashed=0;shape=mxgraph.atlassian.check;strokeColor=#ffffff;strokeWidth=2;sketch=1;hachureGap=4;pointerEvents=0;fontFamily=Architects Daughter;fontSource=https%3A%2F%2Ffonts.googleapis.com%2Fcss%3Ffamily%3DArchitects%2BDaughter;fontSize=20;fillColor=none;" vertex="1" parent="70">
                    <mxGeometry y="0.5" width="10" height="8" relative="1" as="geometry">
                        <mxPoint x="6" y="-5" as="offset"/>
                    </mxGeometry>
                </mxCell>
                <mxCell id="73" value="" style="shape=image;verticalLabelPosition=bottom;labelBackgroundColor=default;verticalAlign=top;aspect=fixed;imageAspect=0;image=data:image/png,iVBORw0KGgoAAAANSUhEUgAAAg4AAAGhCAYAAAAJGTyfAAAgAElEQVR4nOydeVxUVfvAv4IOhOIeiBjgBi4hahimoZgLZe6aolG2YLj7apuvpr5alplpam5FlkZGZuJKkZYaZRhmEmmC24yJCLmjBCPq7497Z+bOMAODaWq/5/v5zAfm3rM898y5z3nuc55zT4Vr165dQxAEQSXvVD5etT1vtRiCINxGaPWCyy2WRRAEQRCEOwgxHARBEARBcBoxHARBEARBcJqKt1oAQfi3c+6ZFrdahHKhA87daiGug+rLf73VIgjC/wvE4yAIgiAIgtOI4SAIgiAIgtPIVIUg3Ma4hD3PXT0epaJXbSpUUg9eLeJaQTaXN/ShYKsvHrO+ROdlJ/PlfK58P5NLHydx1XQsIAqPgVFUatjAurzcnzBueJ2/dmUrx6JWU71bEzi2gnP/e7tE0Xf971fc/Ioo3tiGi3/FUW3g/VSwI8K1nK0Uzp9AUZ7tmVLkvlrE1awE/pr9NpdLbx5BEG4BYjgIwm2JL24j4nBv40sF4NrZI1wpUE+53Y1LTTcq5AD0w6UaQD5Xs//E/FIWl6q4+NTGtdML3HU0iUvfg8vDi6jSNxyXSsDFbK7kFQFQoVoDXHzCcXtmERUu9qFgH7j5+gJwNTfFjmxRuNYEOMXVH6Bif1XG80e4etGSqkKNBrj4dMF9+PMUzbA1PkxyF3E1Oxvty2QqeDXApclQ3KPe5nLCdTafIAg3DTEcBOE2xCVqnmI0FByg6OPxFk+ALe2a4OIGXPydoikxFGlOuU9Ow71hbVwCgaznqdw3HJdK+RR/NZGLq7UGgS93TV2HW0ADKna4H/Zl43q3J5DP1cM/lazTqyUuVVCND6jkrRoZu/qQrx3om8+l6vNdcPFqihtYyWaRO72E3C4xX1K1nS94ONlYgiD8o0iMgyDcdgzDo2MTKnCKywkDHRsNAI19lZv4zO/WA7OWK6B7/FFcK8G1A+/ZGA0A2fx1XKmjgmdTzN6Aq9lc+dpOeQ81wAW4lptOkdn7kM3VDJt01dyUv5eLKPF62lLkrlSzKlDEtbOOLkgQhFuJGA6CcLsR1ZWKbsCxrfz1felJ3bzvBuxNKQyloo8bkM2V3f2o5FcbyKZ48wq75bi4qIP8lSKLN+DMcbsxBqZpjGu5ay3eh4JsivdZp6sYrBoYeXsxOim3a5e5uDX0hIvpXE4s5cIFQbhlyFSFINxmuDesD8CVo6+bgxorjviSKm18LYmK0ikcsRDX2uqUwlHNlEJAP+56/DkqesC1AwkU8iBVqgHnj3DZZnA3ofOuDcDV7ARoHKUM+KfSKS6R0tcyjaHPhvZKfANnj2s8B75UfPh5PFr7AtkUf/m+TRn3U9H0zvs2cVRvY3P6YjpFy2Mce1AEQbiliOEgCLcV9+NazQ3I51qO5ajr5XyuZB8B3HDx8aXCqcMUEo5nTQBPKg78leoDrUu6enAFf81ewdWo1YprseDPEk/+ChrvRAa49zEFRtrzTmimMbaCbqxqOPj2o/ryfjYCnKL4q9e5tNe2jHBcaoLdwMgaDXCpEoKuz/MU7X3bshpEEITbBjEcBOG2ogEV3EseLYobqDyBt1tE1Rhfrv35E3Tph4sLUHSKK6cuKAnd7sa1tifXstdS8MbbisfAQ6ecu5xvt0aXqEdx9QCOpVC4D9yHlDRczHQLwdUNyDvCZUB3t+KpuJZ3hKumeY3Lp7hqSOfyjoUY9XbK6NJUkfv8TxROGWVtzDy4iKrPhONSsymVQLwOgnAbIoaDINxWJHDlzCQqVvHEteVQXL5eYfXU7dLEFxeKKP4jCZeAMcoyyOOJ5M9cqKZ4Hs+4obj6tkTnBcV5wPFTXKMBFbxb4u4FhZp3Krh0mkuVTmog5lZ1auQqgCcVaitTDWa8oqjc5X4qUMSVvQspZijuNQCyuTy3DwUl3tVgH5cAdflmzk8lPCCV1LiIUoM9BUG4pYjhIAi3GX9tTaHSM+G4NHmeqguiuHLeNIQq0xRwhKs/gG6YGpdwfKEmdwJXcofi6tMA14eABODrJIofuZ9K1UJwf/VbKuWp3gkPX1xrKAslr3w/jUtqIGbhvgNU8m2C60PrqNo8m2tXLXVXcIFrB97lUkI2NA/BxQPzskxnMcVT4N0Xz1f7Wk6o3hI4xeWtJV86JQjC7YEYDoJwu/H9KC5efp67evWjorcvrlXU45eLuHYmncs/fkphXnfuqu0GnOLqQW3mbIzHs9H5+OLiNxRYAazl0hs6PIY/RyXf2rj6qgP35XyuZv/E5U2vWy35vJowkIKri3B/8H5cfRqoB4u4dv4Il9Pe468E9U2UwfU0yzKdpTuutZUVHBVqNMC1hvXZa2cPcHnTeArKWE0iCMKto8K1a9dKLLEWBOHGcaftjnmnIrtjCsLNI+9UPl6m1VC3WBZBEARBEO4gxHAQBEEQBMFpxHAQBEEQBMFpxHAQBEEQBMFpxHAQBEEQBMFpxHAQBEEQBMFpxHAQBEEQBMFpxHAQBEEQBMFpxHAQBEEQBMFpxHAQBEEQBMFpxHAQBEEQBMFpKpx9Olj2qhAEQRAEwSHG2T/IXhWCIAiCIJQf2R1TEG4R9do8cqtFsMueL1fT+pGBt1oMhxxP+/JWiyAI/+/Q7o5Z0WGqnLWcn/w/rgGuo3/Fs3U6+TFPcOVqOBVnLqKKTz6XZrTnsh54cDVVexwhf+JEruGG69g0dNmj+OuLFKgyBrd5w7jLFTicwLmZrwNNqDh5NZUOlCONLV7/464J7hROnIi15eMGvqNx++9Q7vK4QS0mCIIgCAJQnqmKY79z5SpAEVwFjm1WjAZCqNilCS7Hf1cH8M641Icrx9TB/uJ7XN5VBIDx6F61sDBcAsqZxpZ69ahkrlNLEWS/TdGqdKcvTRAEQRAE53DscXB1t/r619YV6n8/cS0X/tqrfg8YjM4Pin7+XfleoyWu1bIpNphyFnF1XSKF7aK4qv9GOeTXFFfXbC6XI02Fvt9SrWdtK5mKEt9T65yE+9tRuJPNxYmPUJwH5F+guNQLFARBEAShvDj2OHj5Wk6eSsL4fbbl3OUDFO/JBtxw6dIZHUUU639SztVvgK7oCFfzNGWdWsHljFNcPa54Fajni1s501xLfIhzz7RQPu/+xFVtnY2aogOuns/m6kW1PN8GYjQIgiAIwg3GqbH1ytZPlX9qh8CpdK4kzoECwOM5KoW5AQe4elhJUsHXF5dDSVwFoAnUPgqnsrmS+DoVjqlpAhrAoYRypLGmQv0GuHDUXCdpT3AhTZOg2hh0vX2dbgRBEARBEJzDuRiHU+ngEkWlR1sq3/PUJ/0O3ZWAxvPHuVoA4IZLfV+MOaYRPQzd6OeVf/Vb1XiEJrjW9yxfmhqTcF/+K9XVT7VHa2vqtCHgf9w1exgebk62gCAIgiAITuO8N79LFHfV+4nLlgNU6qo+1R+1Dows3q2JU/DrTKXgt7mcoU5BqEGPxdvKkaZ27ZIWjrnOKCotmYTLJ49Q9H025J3maiWnr0oQbj/CYlj/Rn/uczNSlP87s4d9SrVJLxPbojJwmYOJb/LwrvZse60TfhWB0+nMHjWVRnO/ZPA9RorQcWF3HL13tuGr8SG4FRiBP/i042heuQHixb71IS+F14QrcCz5NTr90oltL7TXyLIYXp7LS6008p7oz/7xIbgZwa34Dz595TkYq8pbBLk/x9FuwsYbIJ0gCDcb5zwOLlFU6tUAFw8dFUzHWkbhVkP5t+iouoLBoyEu1bK5ekg1AOo3wA037ur2nKUsr/q4upYzzcEJFJjiG55pwfnEbEudNRrg6gaVAsOV7wV7uaKNnRCEO43I+7mPdF5tv5LduhCiJvdncCj8MKs3nbbmc2+XnqwYHknj48l0ar+S3VXaMDSmDgAXfllJww9/p2pYJGMA+IO1HXvT8AYZDdCfh+6rw7Gk3jRMzqVxeH8SojpZydL3xZEMD9PI270/sSZZ2k/ky/P38OignhZ5O/YWo0EQ7iCcMxy6RCnvRPCoqh7wxbXT/WZ3xZVsdeqiYRMqXck2BzS6NKyv/G0eRaUANXGjhriVM401ynSIuc56vlQEKvo0UM+ncPWoU1clCLcn54wUeXgTOugQC16fzauZOty4SO5GOJawmNFzvqBABxcu5KKGBFHdq705u5+b7iYKd4YLf4F3oxj6JL3P6Dc/5axZlh9Y8PpsZh/VyHvlMnjWpJE5vw5cb6J4giDcdEqZqgjBc/mv1oeqdaGa7THAY/SvaN+1VLVEGk8qT7U+dn1pNLS0rpOGUVRfHuU4vSDcKSyYx/x7Xmb4+Fm0z9rI6K80535PY93v0D7WftaqoTHsDIU/dy5mIe15lHsYnPYlg/XJ1HvsnRsg3DZeXdCUheN78u789ny79L/kms+d5IetJ8Er0kHeexicNgMK/uCjzzbiNnYkVUNjOJ42mB/mDWDQqhsgniAINx3Zq0IQbjd6Pkig/guavbiNc4E9eamj5lzMK2x7/z8EOMh6YXcCX+YAVy6q3og/+LTNIzfIaAAI4ZGWkDQtlld/9eShx0dqZOnEW++/x/ttHeX9g0/jfqfIzUhRikneOOq1EaNBEO4kxHAQhNuNVu3p0zkEv5TD/FEAbhWMFFETvyHwUFAzGntX4bQRqlb1xk/Nkpvzg/rfRTYfOsvdjdrT3lH5f4tGPBT5EA8FnuTLvHzQ6ahghKq178HvnoYEB3rjVWSkiCp49wQ/10qQf4ZDpuzL9nOQewh14DERBOH2RwwHQbjdSP6Jn6t3YmdaDO2N6SS8+gWf7jbSfvyXrAzX8fO2jQxfmszBepFs+yGG0ItpJHx40px9XeZJinz86FMd4B767VjP4R3v8toNEe4Lvv05n9CxX7IzsiYHt3/BgIRtHPSKZOfa/jQ+n0bSi4tZugvaT1zPzkhPfkv6gmXm/Gn8kaejccv+AFRt9SSHd6xn59yeN0Q6QRBuPrI7piDcImR3zOtDdscUhH8e7e6Y4nEQBEEQBMFpxHAQBEEQBMFpxHAQBEEQBMFpxHAQBEEQBMFpxHAQBEEQBMFpxHAQBEEQBMFpxHAQBEEQBMFpxHAQBEEQBMFpxHAQBEEQBMFpxHAQBEEQBMFpxHAQBEEQBMFpxHAQBEEQBMFpxHAQBEEQBMFpxHAQBEEQBMFpxHAQBEEQBMFpxHAQBEEQBMFpKpY/ywk+e7wfz/yofOv9+lpWRdV1mPr84Z2s+2gDn6X+zI7D+QB41wnk4c69GDRqAB3raBKfzOCzjz5hxTeWtHjUomPDYEJinmFaz0DcSxOtKIPZPYYx/bDpwBC+PTKWMIfy63hp5VamPagzn01f0o92b51QvvScxYn5EVRTzxUez2D952tY/81uUvefJlc9HtAwkI4PDuelae0I+HEBlR9fVZqUxL67hbEX/kvzSbuVAw9MYt8nvQiwTehkWXO7e3L+8E4SFq9i/Y+/suOkUTlZI4COzYOIfG4s4x6sVUrZA0j6/QU6umkTGNk160keek+vfPV4ip2/DScE6zTp856k3UK9+ci01am8FGpdlT5htOVarfAkrFtPYmMfZ1CrWnbOA8W7mR44mtl2TnnXCabPU08z9vF2BFS2d102eNQism8sb0zsRVBlzfGTGXz2qc3vWiOA3hERDHr2cXo381QTWvd9e9fy8n/HEulvkv00u9Z9woqPd7IjQ4/SSjqCmgXQttXj9mUU7lycuF9fWvkuPGm/P4OOoNBevPzaWAYF6nCoa4vz0e/YyIIVX7F9TxaZBcr5gIaBhLR4iNgXn7Lo1WIjuXu/IuHTr0nW6gaPWnRsHWqtG5y+DxxQdIJdGzfw2YadVnJ51wmk7QMPETvxKfy/GX1D9Z6lbmd0v7Uu8h76LvunhVrGlP0f0a7HUtIBiGTt3ulEVrVTeXnaFHBGT55Pmkbd0cnKl3rD2fndUxpd66AfODFennSoe03U5fVNaxnXrJQkdii/4VCkZ69ZcepoGeTAaCg+zY5Z43l6eZZ5gDWRezKLFZ/MYUXiBuauXklsMyjcvZR+T33EjgKbxAWn2ZGxHc4ML91oAPQJCzQdB0CP/iSEaY0TK/mNzJ63gaEPDlA772n0e06Yk4Y0qasYDaVcC4D+cBb6tjAX0GeV9iMBBBIS5IbhI0s679D6JW8ep8vyRJ84kUef347e9vRZPTu+1xPyzOQyyt7ArowX6KjpyIW7l/Lf9zQldm5SUsbDG5i+0LrWvfrTEGp90xj2ObqOfHZ9vYpdX6/hq9kJfDjATl8y6NnlIHfuyQyWzZrAss+H8O26sYRVLqPNCk6T/Mnr7L1QlV/mR1ANI5mfTKXfFPtttz7xI9YnfkHskrXMjfS06Tv2r6Xf96dZmzKdSF0GsweNYvp+o006I5n7s8h0zaeGY0mFO5Cy79d2tHTTs8zheSOZu9fwTL98qqdMJ9LDur+1bFQXik+w/j9DGZKUX7L+w1noD7cg9nX1wIUM5seMYtJu2z6Iole/T1Z1QznvAzuc/+Ujnn5iKcm2+htF369PbEHs69a64O/qPas8zuh+G12Uu2IZnz0VylDV0M/N/FU1GoB69aljz2hwuk01OKEn9ZnbLCc7BhKkTWxnzHVuvCxN95poR8uGZSSxQ/kNh8NZ7DB/CSWonv1k6e+PovtyU2Pp6NhzAJEBOjjzG+99slvpoAVZTFi2nai36/LRBEsjBLSKZOCDPlQHOKNnfdJOIlrY62Iazm5nwVsZNgd3YjgOaDuPlfzAL6tYvbsXL4XqoPgoe7+xnOrYNAAwsmuO9lps5MOI4ZedFLYOwp18MvdkmdOFdB7AoGZVbGRqQlt/PV9phOgYYM/4crKsqsnMNhsNOoI692Komu7c8Z9Zn+xJ2+Y6m3zWZYORdWlZvBQaqHy9lMGC/66yGrA7tg4we15MZSQvWECyTcnrD50AtIaDnr2aa43s+xQd6wFcZFf8GtafVepf/b9VPNXT1usB5zMzLL9XvXa81DeQ6sA5/U5WbFQNucOreHPdANY+7umgzYxkfrOGFeognrtxG6mvRtD2+5k8MmW7xXP04ACea1UFLuWQnJCs9sd8ls38gqGRTxFi1XeCiR1zH/5g06eTWfHNWOrkTLMYDTWCie17H/6VlevOTErmq4ggjKU/VAl3FM7drw3+3FZ2fy5IJvnHF4gM0Pa3dgT5w/kvF1iMBo9aDOzbk5Y1AYwYfkxmXbVgmrgBlzKY3V/7BO5JZN+edKyn6IKTmdvZ8HVtWjbScT5pWvnuA5urKty9gL4DNfrCTn9f4RWIv5ue9TdK7/lrvjqr+210EWSw7NMMBk0Mxh3Q79upEc5m8IZytan2esrWkyc4oDFEejcPsH5IttI7nQjxz2JZH2fGyywHuldDzfa0tNG5zlBuw8HaKmtBwN12EhnWMP0ti9EQOz+RuT0tg8nD9Z+k9Wtq59j4KweeOsD846azoUydP51BmgscN60sqYzsWrSAZQVKfWENa7PrsOI5sLXsrOQH4ATTP9pGbGgk1ayebkNp2UhH4fY5DDY/eQfw0vuLmNbZ1q0+Vv2bQbrG8GjbN5Zx3e1Y6H8mM8t8vXVpGWTPTa93qqzcxAmsMH8bwJIlYwnT/KrT3sTOr2xdNkD6V7+iHxFIAEZ2LZxpY71DWKC14Vb444dM36h0du+GAdQ5rFfaNesouQTjbb7Wo+w1X2sgvUcOZ6jJwn20Lt0fXqDcFAUb2LX/BTq2spHUyhIfwMvj26k31TO0detAvzXKqeTtGeQ+Xtdxm7WFFWb3Zz7nzu3mnZeSzcoycvxKVo2xTIXFPuBGrWEblC/Hf+XASaij7TvBkYwdb/JUnaDOEYsrMfWPFJI/sHiuer84nbna6bzxL0Ax1BPD4V+Ec/dr+rypli+tevGf8epUaHEobLRMYZwsMNrRtafZvmG7JX/UdD58ReMmHD+WucVqPSs197BHO5Zvnssg7WDLcN64kE+h227eLOd9EKIdjIuzWKZ5yPDuPIlvl/QiQKtzxr/AGxeMVPtzm0YX/D29Z8F53W+tixTS3/uE5NhZ9K6h50Ca5XiJwZtytKnGU+GUnizDi2/VD4KDCTJ8ywhnxkur661Lx2eHl3tKwhHlDo4s0yoD0pNWWSysVmMZ29O6g1SvWts6wxWjZgpgN8/0HsaEeRss8zYVKd3E2b+K/y5XOot358nMGx9sPqVYdg7kN5G0jI8yoPAPvcWy87iXJvVO8NnCNWbZQsbPYFrnWpzfvYb585Zaf745AcePstfsOqqLf4CDDn8ok9XmLw5cRc6WdUX7ZRWDO0zgv58kk35ctWDttZtV2SoZO9l10s4UhUnGRpqvxVksm7pK6cwe7Zg3fzhtTee2663dnVbXGkoT7Y1WtYrqtQEw2lwLlG6J66heU5P0SpHNdVm7M8+fPW1J6xFA7fSNzDal9RjAuOes42fcq9k+5dj0nTYBFjdr8QkOaFzKfYJ8QNO+6ycNpd/zS/nsez3nVcV+PdFFasVMmf8e+3/4kuNp6ueHNWybH0Ofe663zBtIeAwrP1/D4VRVttT17N8wiymRdcrOeyfj1P1q3Z+tvHgFFzlvPqOjZUAtu7q2UHuPLJ9A62FzFE9FkXqsIlC0m3WLLHfh0Dem2wxwKlU9Kfqm/PeBlsLUDcw3P2REMG+2jdGgUq2q7sbqPRPl0P3W9ZvYzpvxWVB0ggNmp4WdKfhytKm5/ZzVk7YeBZt2KaF3nB0vra43mCYOZgeuh3IaDifQ/275Zs8qAz17v7L8YB17hZaYx/qrWDM/FFwX73pBDPTQJDibwbKFr9O9a1eaP7mK9EulyXSaz+YsVS3eYKZNjCQkoL7FnXb4hKaRreX39tCZj09alsyu3zU/UOcmBBzeyWe/mA4EEttdceUf2DqHSQs/svoYijzhDz3rNXVN6tGWyg00n2GKZa83aKYJHgjE356ryMmyqjUMtAoAyj25kwVTptGuQxe6T9qOvrhEyTZlm9jJ3rSdJaYogBKepdx1S5mkKovIF8fSu1ld/M2dUs/JPy1pra81AG+tUrGSrS5u2j4AJQbkIH+bm1mb37Mq7lbXpTFSzu5m2TyLszAk+kGu/qRxHvZtR5jtb3DZWrY6Naz7zsDm9VUZjOjXrNJ4fSLo+EAjgjrbuCsTP+KZJ6OoGzaaZRl25kedIoS3El4htt09VNUWr6tM43b9eXvuf3joOku+IYT/h22z+vNQQGXcXNVjrjqq+oQQO30u7/e8lcLdZMq6X6fspNCmP5u9eMX57Fi81BL7UG8AHYPt6VpPmgRrtakyBTdy3JM0uO9J/puk6N3CH7dbjAEGMKibo8HXyN4fy3sfWOfflWx5sOLxXkSWErhzI/WeQnl0v039HjqzVzR93nLWf1/64O18m1pwVk+W8ChYxVZYe0IGNq8PTo6XVtdLMv1aWrdlg3m20zvOUz7DwZnAyAt60jXy2Lq4SwTLtahLnTqRLFk7ibGtSv4Y+u8X0HfObgodiHQ+aQH/Vb13Ic+NZVBDoF6AxbL78SgnHcg/fPZkhpq+Js1hZJzG4GkdANr5dfNAdAJ9ifZWLOOygnpCWtfHmxsTIKSUBe6thpP4yXAG1rGNYzCyI2EiEz47USKvVdmdexGrdubP/jtRccV5tGOoduDTepbObufN/6kGVr0hvBwVAPjQxDzFsJtMs3us9GstPJSlURJ2nkCspo5svB42N1TH1gGctWqzVTwUqN4k9422uBgbDmHemCrs18z92TOArdooOAB/rAPVVj//qFJ2YAeaT9ppVlBhYx4nskYter+zkuWPB5f8bc/uZsLgBewosj3hBPdE0r6h+rsUHOajV57m4WW/c0E97RZwP091v45ybxBjn+xEY1O3+WMbo5+czTq9aiS51uCRqJhbJtvNpqz7tXfzANxtAn1nP672z8CudNdMh06bO5ww7OlaHSFjFvHt+HYE2RrZBVksGD2NFQbI1D4AORqgFamt5sCdug+syio7v4Ubq/egnLrftv5nZzDPfK9sZ9JLn5QyeJenTVXKoScdejLBZjxVp3ecGi/LDozsE1RG3GAplM9hWoZLBYCCC5ofK5AAL5vzRb+yPdHyNfYBJTCFwF688UUvph3PYH38Mma8t9vsysk1nOA8lOyURRksm2WxQNPfG0at92zlyUL/J4TcbUf+ByOJHL+MFfNOAPnoz1qyhQUGUJhtE7lcEaAugz5JZRCw67W2PLQclEEvn8xlFgvPO7QX4x6oaZW9SbdAbANW7P941gFCjstSqPbAU3y48yneObyThAVLeXOjZfVH8h+nAa2BZxN81LonvetsYNknkFtgBHQMfHUIHdfsND9FWxSCkV3LTPOJwPFVPNTUdqLeyO/609CqFraKxfpajezascHytXtwiSAd68BIm3gaw27Wa26oyNa1yIzLwjE6Oka9wLyJvQiqnMEOzVynfx2bqTNOsGODpo0ebkHA4Z3WQbX2yn9mFp+OUftz5QAGvfo+g145wa6Na5j/xio1EBQoOMHJs6UU5YjwmpapnbxDvJJ8EjhGbmxTqqoyuFV3lPlm04nQeyzG5rGMlaz7/STrdvanT4CqKHwaEQulrCq4U3Hifn2gLuf3ZZTah7yb9eKN2WMY1EwH+x3o2oq1CBszlz0j8sncsZH585aag34hg9w/ofC85mHBDe5yWGMRReW9D0rJT8XSRtPSdIGJcui98ur+EvXfR+8uwwlJUpZf6s9qdL3t4E152hTKpyeLrD1LTepb1/vrbtaZv1kertzLHC+rWl1vWLch9A7SPlzWpu0DZXtNHFEuw6F0l4o9sjjwhxFMT0kY2TVvjsXlU28Ig9rC+SKopvY593rBDJo4l+pnLIFv+Na2iehX0CcsYPpxOyesUC27u+3LHxAdy9B50zSuZjA/3Z7UHlOVfQ3Ld/MP/oASMbxaE9TT56kxDgIjrYMFbZcVqVdmFSDksKwLpznvUYtq6q9YrWE7YufXhc/WQAQAACAASURBVMwoJqj3X0cf23zWZXdsGkRL/0j4RHFZevecwTvdjcx63pRC41k6vIE33yvpwbBlh16NGC7tWrPWMH+FxWU/NLJdid/Y4RKl4nyS4zSRyvV6EdFUT7LmuiL7PkXHGnrWL9+uPuUZqd66vd0+m244ARpVoV8zh+nmKap2jOsbSO6PSzWBapZoeIDqjUJp2aoFIfV0gJHzf0K1u9U+71aXsAFjWV7joiXIrITL10muGDlXYMQN4K/rne64WdTETaOXiq6oN0/uRS4AZaqKOxrn7tf0tZr+3CqS1x+sRWbSKlao3rBcr3uJUN+VYE9Xnf8zn2p3q+VW9CSo8xAW3wMHHl6g9vFAvGuAe7W6gHqf/pTFgUvgrX1vCSjTfDba35n7wBo33OoB6j2emp5J4YB2JR/wioGzN1DvUX7db1cXNezPy92XMiTJOpd5GlJDudq0XHrSjZN/aK7rwFHOF6s6/exuFkzXTAX1DKVlcT7n8Sx7vLQJjOw9duwNC4yEchoOVi6VKxmsnncKKxuzWihRT9anpQesV42DBaNjOB/VjqDKcPKXL1jwvcmy0xE78WlCfl1GrWc2EBTaid4PmJaU/MZ7pkZAx0uRoSU748lkppuX4OiIjBpCR/MTaQ47FiarA4vlCdiuS6hGJ4Y+t4wV2h9afbr1johkKKYn7+0M6TKasdH3UgdlqeNqkyuxaV0CbAIO9d98wvxMa5Hd2zxGrKt1gM6utUs5Z/UrVKVlRBWnyoo8PJ7m03MI6xZJ7yB1CaZ+JyvMRnswgyJsbGcrOZWVI9Uq3kdvklnvEcmS/0VQ7fBHdp52TrN+lmWwtn0aMHz/EctUJZO7/4QSMXzIwbWeyWJF4k7Ml9TqBV56xFZBWAeSBRl2smzer4ARw/cbWfaL6ZyOsTOGEHLyK97UXNeg8cMZVC+fJn9up99G5ej6lAzOD4igGnXxjwBUN+eO6cMYcqg/YTVtlsUBYS8OZ1Ad2KXpO959n2aaJgjLiqLdzAqbwGd1gunT3bIkbVe8xbviPTSi5FyyM3w2lXafWR+6N8bPsoKFfC7YrIYR/gFKCcq1YBPo+1gs46Lqcj7oNCtML/7Z/jN7L/Qisqo997WeFTFRjDwewNDuEQSpSzAzv1ljmf5o1YuODSHgwV6EvKUaugVr6N4hU7M8Ulk+nlxxCN8ub1/u+8CaQCIeqwvzFN2Z+8kE7tuvWRp4KYddO3ZCbAKrfG+c3otttLvcut9+kLYnkU8NISRplWalnf3VHiHlaNPUcunJTrTsrAP1ISp9+WjqLi9RPRDA67ERuKXNcW68PLTUqr33fr6U+TbWe0DkM/RuZjvF7RzlMBys55TZn8z0/TZJHm9BbMVQhr4RwYpx283valix3NaF7MnQ2SuY292T9CU7UV58ksxsO1MyYc8t4uUH7czfL5rJalMni3iBJa/30ijQE9TZnUyyOrArll1+ySATAHSEDR5C5HtzLE+wpqfbGpG89PY2dpjek3B2NwsWlhRyYPP6FB7abhVwmJz4UYm1u2OXP4P+sDZ/FiuW2LbNANbdixNlPWZ26+36eg27vraVSsfA2dPNLzcxYRVX4HGvGmnbi1VHepnT5G4v+bRTuP1Dxn9jUnzteGPBJCtFovf5jWW/qNemzi3+lVXWtQINB5C0dEDJSGybly1lfr+GSd/bucZpK5kWoaNwu73r8iSodSBsVOv95gB6IgihFr3HDKfjT0vNa9TXf/KRTcCojo5j5vLpsEBKxFPYXX+uok6H5Z7MYNlyO8FHDYfw6Qt2DOHr4K3Pv2Sw2S40cixlE686eluWcNOwjtWxWTlkwkF8WLWgYDqSrBrq20g/PJ3IVnYC4i5kqHPdelZ88lHJ8j3asXy+ujw4eAjzxnzL4IXqwH+2ZF8MebEJ3uW+D0oS8sx0piVbXnSm/yWZ2b9oU9Tl9Wa10KfdKL0XfR26v5ZNXFeQWd+4hw4gttUqRmo8K3ZXezjZptXKrScj6Rg7maEbprHC4fSlJ0Pfnsu4ZpC+w7nxUr9Ce/IEq1d8ZLOiJJDFvYY7qrBMnA+OtAl6tIdpLty75yx2bpnL3L6hhJldsjqCmoUSO2YS3+7cwuIBdQEjdYKHMLZboCYdyquSuw1h+erNfKu+nMOK/auY/onpxwlm8WRtxwGoS0BTy7fc/SfItRdkYsK/F+OGWowTbZBPQF9716K83nXo4y+wdssWPuxbyzp4xi6htGxUZPPiJTs8EEjxIWfK0hEQ8RSxDwZaBUp51wmkd9+xrN2y2e6bGDNtV47YKV2faRO8WpzFspkWl1nktLElnj4C/DWKpSAL/Z+2L5nS4knYg5G8Pvt9jnz5guZpQYPti7o0eNcxtf1mPhyq/FaOriugRTtL3yjYyV71idy91VMkbX2f5c9F0FETWGr5XTeTND5UcRmW1ndsqXkvsY9H0LGh9qnTk7DgCKbNfp8jXypvuLzx6Ljr+h4ehL+Jdd8Lsrsc0WF8WMMgIsz3r5Htv+od9Le6dBwTSe9mtTS6TtWpE+eyb+dczVp+HWHjV/LLpulMs9GtAQ0D6d13COM6KndIue4De1QO5qV1m9kzfwhDg7WxAZ6EBYcS+0wsEQ1L0wUqzuq9a2vKr/tLxHXV1+Spy6DxAyzfHQY+OtGmD16+Dj0J1Ilk8baVrLL6DWzGy77lGS+daG9HBq6TVLh27dq1688uCML1Uq/NI3+zhDq0j32J92NMwZFn+XbaEJ5MKiNbGez5cjWtHxlYzlz9+ezbGNqr9tLBjY/QaQYwZBb7x4co8uWn8+pDE/92cOTxtC//ZgmCIJSXvFP5eNVWbvDrfg2NIAj/MGH9ea17Q2VeMy+d0YuS+WHZD2QMaqoO2DW4pxXwNw0HQRCE0hDDQRDuFBq2oV939eldb2T0ItsZYMC15CFBEIQbSblfOS0Iwi3inBHze6NcdfjdSllKcIgLFy3f3FzVyd36Nf/lSzEF4f8fYjgIwp1C0jFyTXsV3HM/K+a/xLvv9iDUHId5ibxMB3lvOunszra8G94v+En6NO3Euy01oWs5h/6FL38ShP9/iOEgCHcMcSTuNg3OlWncrhN9wuqY36VSpP+eZZ85ynvzWfbR9xw0Bbzf04l3V75EnwA1Stz4B58ujbtlsgmCcOMQw0EQ7iCWjR7NK0mH+TNf8+ZI4yUO7vyCYY+9w7e3TjTY9Q6dJn7Bt/pLFJk8I1eMXNCnsWzGVF5MuZXCCYJwo5DlmIJwi/j7yzFvDte3HPOfQ5ZjCsI/j3Y5pngcBEEQBEFwGjEcBEEQBEFwGjEcBEEQBEFwGjEcBEEQBEFwGjEcBEEQBEFwGjEcBEEQBEFwGjEcBEEQBEFwGjEcBEEQBEFwGjEcBEEQBEFwGjEcBEEQBEFwGjEcBEEQBEFwGjEcBEEQBEFwGjEcBEEQBEFwGjEcBEEQBEFwGjEcBEEQBEFwGjEcBEEQBEFwGjEcBEEQBEFwGjEcBEEQBEFwGjEcBEEQBEFwGjEcBEEQBEFwGjEcBEEQBEFwGjEcBEEQBEFwGjEcBEEQBEFwGjEcBEEQBEFwmgp//fXXtVsthCAI/wxX/yqiwl1uVCglzYWLl6lapdI/JpMgCLc/Fy5exqu2JwAVb7EsgiDcdIq4/OUCrnz1OVwGKgVT4eFXqPhIfVxvtWiCINxxyFSFIPzLubLtNa5sVI0GgMsZXNv4JJe3XbylcgmCcGcihoMg/Ks5ypUtyXaOF8GWLyn+x+URBOFORwwHQfhXcxHOOTh17gQS4CQIQnkRw0EQ/tXUp4Kfg1N+TUQBCIJQbkRvCMK/miq4dn/azvH6uHSPkOBIQRDKjX3D4UgifZpNZE2u6f8JrMkGcjcztNkE1mTvY26zCGo1i6BWaD+iZmwm69I/KrcgCE7i0mIEbtMX4+IXCNUDwW8ErtM/Q9fC7VaLJgjCDcVIyowIas3ZZ/l/1h4A0uYo/+clTlTG7mYRtO4xhUW7zpS7FvuGg68Pwezh2EngzxxS2MOxXCDbwCYa4e+tJOsxcy2nt71KeMZbTN2Yc33XKQjCTafC3aHoJsbj/no87hOfptLdt1oiQRBuPDr8GjSCoznkcZrco4A+hzzOYDgEPRr6qOkG8tX+7Xz1HEwd9TEpReWrxb7h4OZDUHMjuScvYjh2CC8PHemGM+QdPwZh/nhp3/7g2Zz7w2DL8fJbLYIgCIIg3Di8/YIh6yS5xTlkZujw+s6AgRyO7YZAPx+rtF5hbelRkEOuowBqBziIcfDBPxgy/zxNnmEPw6L6sOlwDrm5Bgjywf86L6gsLhzYyqKJE3i4nWUapM+sVApNCS6lMiVUPTdnn3IsP4WXTdMmNp+hnx9iywvq/4kmwyaHNU8rx6Z8Z4QD8UTYyRvx/q/mvJZPNx4YtZqMS9p6lSmdjPcHK/nm7FPlvWhdt8N6DlkawE6app0mErfPaElzJJGoZrbXZF1f6fLafF5I4cdSZf/DTrnq5+nNJKt5rT+DWXSAsmXetVhJ3zWeDNs2CF1MmqwVLD+XDKyZMYoHQtXfP3o+aw6q/afYSN7OxcpvMXwzeddTvr0yinPYMmeiWmcErQe/Rny6vCPijsbhfWit18rUe2aMpMzopuqHxaTZrdSeDutB1IwUDMVOlFNCf9r0/1J04AWA3D3EacefZt14ICaRLCz6vemcfZp6XmNLvqV6w+cTS+ozcEpnD/00yalxzPpjXb8J93p+hGef5tyxHLJC+zCswzEMB86QW9CaoHoOfu9y4uDNkYq7I+XkbxgOtcXvaX96rMwi3TuHHk19gBvvXSjcs5iB0atJQ0dgk3BGPgwZP/3CuVq1cQfASMbyJSwuUDMc0pNHc7wKKtN4RDQz8g/xeXwqGfgT/WQ4gZUhMKyIjDcBfLi/aU0lX5GB9F0ArQlpqCPv59+UHzmkCzPa1THLE9jZlYxlSt7+0Z0JKT5E/IZUsrYtZs7XXVjRIJMNAL73EuR9BsNeZaomY3kCW2NepUd1AxnbLXXnZTmqp5H5f+s0NTm2M4m49FRe/s9qwrZEE8wZNr29hC1q+k2HcwD1urDUV7q8bZnQqxHV1VzV2gdw+oPSZK+Me340M/wvkb4hkS+yoU3ngfQM1EHTBlxOVPJ27RVNuK/pSoLoar4sxzIbDipzb4Q3orFtG0QEEyTvNS0nF9kybRixSUb8Q7oQUzmVuJ2JxA7Op9qnrYjv/Rab/k7xuZsZ2sm2DCMps4cSFW+E6q2JibjAhqStjBucA5sWEd3gb12QcItwfB9qdQMYFpau90wUpq9kZoLpAegYhlxo421bq30dtiVhCv5hm3gzskqp5VjrT0+ykrcQvyeR2MHg/cM4wo840oGt0O1ZzMPRq0kD/Bu0JqaXP4U/Z5AZ4k8gZ9ik6vdewf7kZX2sGgZb+Wn/K3QNA7I3M3VaqlKgRp+Vpv+s2tKvDm5OjGP9ozsT4qlmr/EAYZ6UxNeHYHaRm16JTY3aMrp4HSl7w8ikEQNKtPn14VA1e/sFw/cpbPzOj9Hv+hA4ajVbgiEw8iYYDkV7ePu51aThw4S495ncrorlnMnSPLKZmUsMeEX1pVdCInHfGTAAXt6tiRnTGtLjeDc+FXy7EjMxmmCA7M3EFwC0pUV9tZyjh0gB8GhGkC8YPlZ+7OCHohg1zDKIa/M+8XwM4W7QomIEfeLBcOoMhuL9ytNWeCMaF+vZsM2UMYU5nx6iRy896Zq6Desc1KPBsF9JE/7oE4yK9of2EBe9GrIvUAgUfvcxL24z0jWqL24JiWwyGU8A2Zb6SpU35FHGjAmnqrl99zCzVNlrEt4khnD2MXdFIuBDz1EjGdVEzTsWwIfwp2KUYzY4lvkiWXsVb0uPpv6qcahpg5Z+FhkFJzGQkWQE2jLpnVcYUGsPVVtMYG7BVjJy+9J1RDQhhlRmJh0qsyS7eATYKeMgafGKIp8wby6Tw3Joc3owsbv2EffNIaIb2O/rwu2Nw/tQo2da3KPnuzL0HgDFBtbMiifNoy8jIxNZnJjKsWzAdhArocPO4H2iH7HfwckCY5nllNCfI8LxajGBuQWJpO0bh99hBzqwaB9zeygPrTFzEnize01ruYr3kL4NoBHBjatgWJ1qPrXl10NMvq8ya161GNRafeaszm4R2prw9mWNY815bEwMXe0ZC1rcfAhqnsrGZOgRGYVX8b2kf7OLlLBw6zCDv4HDYtzr+RG+ezM/dQjHv2It/OunMndXa5a9ZpMwfw9fJ0PXZ2vaLccZLmxPYm4B0Hwg0VqjwSzhRbYsXsIWjy4kjH2C8ycSifvO2to0ZGkGcjVr4eFD6o+ZSJ9WidblhgXgjYGvf1a/793MooWVAXC7rx/RxWre5n74uSnXqdwkPvS6rw7HNilPyz2a+uN+LNXKZZbxQQJrantq8htIcVBPTDuL9ZmppmnTWJkMyvpNnY6JDCSo+BAfzE4kr0EMkye1YktCIptMxpP2WsuQl+wdfLwwU/m/YVdGNTGUIbt6ItuOQjhmyZu+No5FngBVaTF4IOG1gVJlNlnbOkICTfNuJdtA+BtUdOMu0/8ezYke05y8xEPXbzh4ll7GXZUA3EDtMxnnyxlxJdwmOL4PzXomrBF+uc7pjgvffMzMdB0x855lTEEOixNTSTecgdY1HZftBuRnkb4bwIf7A2ty4ZvFpZRjR2Zz/9eBq5Fjv9vXgU+4JjIzG2g+gpHdq5AyI4I+CapQT87l9EDTdbYmyM9SD0DG13vYdNcOYr8zHdHoM2d1tul6KWscy2HrR3FkARBA1+e6EGh3YZQSavDThj0Me64m3hf92fRdIjw5EH+wmqI0bEthk4cPMdXtleMYx/aHrw/BBUZSAnzwUgVhn2VFBcCmyf2oNbMmXXu9wpsDfBwWVRaGLLXVwwLtxk8UfvcBY5OMEAJZH6/l2HmAVDL1qNampVNorb3cYxl2SlMIbhmAV1EOmerYnLEtkQzVep7wYQy5R9S8++bTutl8NZeO8BGvMLL1ada8oRwJ9POh8PgxxYsRNpJlzROJXb6VKW/qlAT3+eNflEOcg3rMaGSZ+3QEc80n/Jn8VAfOJoxn6hEI7nSa75Zs5YAvkH0IQza08dVcaxnykr6VqenKvz2mP8qzZclu+g3sdHLzdZPDF/HxfAHAQL4aoZw3JMxzLDMmQ6QDwSZ3dv4xMvYBtCWkob1fTSid5kzYv50Jpq+5etJvpTjCnYlZF7UlKMD6lFnPBPngfTylbN1xKZW3Jm8lj+aQlcDn2cqk/KZMPRaXvU3Zu96idbO3zMe9Oj3LYwGpvDW0lHLMMmvm8bNN/b8DwQ1yMJiGAxsd2OGkdvy5yLGAaCZ3V7xq/ZsFUGi+Tn+8ruSwQa0nOjKH+OTFDN0Hbbp3wTtpK5s0+qxU/edr3ZaKni1rHNtH3BJ1kAh7kR4OV1MroQZ5BVXx8wb36n6EA9Uaasfo1TzcbDX+DcJ584NnCS/nymzHhoNbW17dv51X1a/hU7dzeqrppI2CulGczacQzA2mTFOoVhtY/eAAWcdyIMwHOMavKWD99GpxhfeftZb3etVECYwcTOwuCA/yg6Op6rRFNNt3xyhuITXvls+VvG069yUoezPxB4wQ+RIrxzTHPT/FaoA7mKi4rrxaN2dA70qsWT6fLQWK+7Z/swA4muSgHg2mKRSr+bdatBjYl3C3FF5+VukwWsMD9pB5HPC1XGtZ8q74bhY9aluqzXi/DNlVDmaa0gWYjQnzsRGL+H1Mc+vrOZfC4ndKkbmSQbWi3cwhuobNm4kDCAkjuDbC36E4hzUz5itt7NGXNs3LyvD3MRw/Ay3OcO70za9LuImYp3MbEWQ1naDRqc0COJipDO6l6Y6MVaa4NM2gB5CZgwE0D4qWsrXxUm4NIxjYrRGGD4eWXo7NFDSAYVuS0v8j2xLGMWY60IFpc0zBw0VATcKfjMHv8/3MTNLRxL8mB3/S6L6jv5jriX6iEV8nryavQTRv9YOBSYBvAHU8KVv/+Vq3pYKz41jZ+EfHcTra9K0v6/b3NZ/z6juL033tZnOa2yL8rHGHgbRZEk9a4kTapbem6/01OZlxkPPdpjC/ehxTj4BX9Fx+mdQadyBjYTcilhjVQBMfOKUnPRusnl41gSchgWUERtY4xIaFcZi8TYG9HzDn7TlqHKOKKvP14HjykveRXtRFE2RzL/61LYGRvQL9wa8xo6KXsCXeaK7bHLRTop4YuqqvAzanCe/D82PaWownjKTNWkxcAXSd+ikJUUqMyaZR/Ri6zWQ8nXFOXvJJ+TQOg1pytfaRVC9DdgWba7Q55n1gK4sW/qgeD6LHmDDylpYhc6+2TPBYzdyCzUS12azpDTpGjnj0pq3c+X/BpUMsih3J1D1GwJ/J740o9xOF8zSm6wh/Zi4xED+xH/ETb1Y9wj+FWReRxJTHTPP5AUS/05djZp0KhuQydEf2ZubMM4BHX9b9ME7pg+lxNB0cT94uA3nF4G8egUz6uhE9nouxDqp1opy7rHTsfOK27eDrA2cAf2bEdqHqkTgHOjCKAQ8NJHj5ajJWTuSB3zrQpd4Z0r7bA3QhuMEZDO9ZrtMcGBkRRFBzH14doYOuT1I1Y6JmisFIWln6T6OzzXq21HEMLuxcyyKT4Hc/wBNRzW9ZHNhtYTi4h8Sw+sOqzFyYwIY9e4g7okS2Ptv0Dxb/JxVozuTo1ubB1LteayDVYm0ezlLc5M2bE2gKHLE3J+8gMJLsVOYuMd0gbVnRyccm770MABaTyq9Hx+GXZS8wUgmcAQiPHkHX+PlssQmMLFHPYEsbmAN7GvhojAbgwGqmrMwBj76M6muyQmviXR/YpkbpZuc4J6+Vta5jcvvWGMqQHYBivVVwkPUxG4u60ys85ozMbq15/tMXKZz+AWv2nCGPKrRp15YBw0YSE6ZDuE6Kc1jzksVomLB0HhNa38z21BE8YhF77t3Cpt9OA7UoOjKfmfY25BTuCEy6iIIzpOwzBcIH87xRz8YSgZGOdMdFtkxWPF5dXxhoMVzr+HA/sIlDSoyaaSWWWV8H429enQVwkS3zyi6H/VodC1CFNp0H8tbYGHo0BsPnDnRghxjcQ0ay4cOqTHk1gfg9W8naU4U27brw5uPPEn6XnrftBEaGt/Sjqps/A8Y0AoykrNZMMVyXzgZKHcdgy4Z48+oMrxEPMKr0n/GmUuGvv/6SDfIE4V9CXuJEmk5OxWQ0TO5Q0/75Di/y+9JHlehuGy5cvEzVKpXKrqPDi/y+NIANj81jE9DjlThiQpRX2z68HHhmEadf+AfmSARBuOlcuHgZr9qKRXNbeBwEQbgRGPh6lTofGzWC5ztc/0on56mCO4dI2QdBZ4xQnGOOOg+uJnthCMK/ETEcBOHfQvFpDKoXNujCb3yw8DfzKW08zY3Fn5Bu/rDPQNyoHmypDoZzyvHHwuUdDoLwb0QMB0H4t3A6R13jDSlJ8epSWYXJ7W+W4QDBT8/jq+J5TPk4hbRz4N8gnGenjLf7QjBBEO58JMZBEAQryopxEATh/x/aGAcHm1wJgiAIgiCURAwHQRAEQRCcRgwHQRAEQRCc5rYxHKz2O7e3b3poP55bfohCh2knsiZXLczRXvIO90U3YW8/ePXz9GaS1XqtP4NZ9HPp8pbcJ175RLx/CPL3Ea/dAz60H31mqPvDA3k7E5kyJoYHQtXz7YbyXILBug1U0mYpafrEG0qt05Q3Ys4+RT7tvvCJZ0q2X3YKL/eIoFazHoxLzAGMZCUtZly/fjS1t++9IAj/Lo4k0qdZBLVC55Oi7l1WuGcxDzeLoFaPxaRdAi6lMsWkpzR6CShb55gxkjKjm6qvFlttomXLhQNbmavVjc168PCsVArLGD9K1cdquYtsdfKsVArtjSu7FitpHkvEYDsWXTrEouhu1GrWjT4L93Ch2GbsMpXXdTFpapteSH5NKW/4ZuvNqOJHqXJqxrlbyG2yqkLzSuNgfzjyo9W+6YUHkliz7QxfzImj26Mv4W4vLam8u/YQA0Y0crCXfGn7opsw4t4imhn+l0jfkMgX2dCm80B6BuqgaQMuJyr1at+lDkF0rZBJb4fyzqKD1T7xdcy1BXauTPxzMYxLV/eAf7gmJ/fuIdfHh6qAIXEiD09OVd+q2IWRtc+Qses3atRwwZCiaQPAdne4vKwlDuqsieFtJW/G8gS2xrxKj+qafeGb1rRuv9wUXo6dQtwRf2LmzeLNyFqkzRnGw8sNUN2f6KiO/LVtM19o972X5fuC8O+iQVsGhMwnJX0zafvGER6UysznVpOGP5NnxtCmspGMhaZ9KQDt9tEa/e5I55goTF/JzATTA4j1DshaLLpRR2CTcEbe78axn/VUD/LH/cjmUsaP0vRxIwr3LGZgtLLFdmCTcEY+DBk//cK5WrW5kLWuxLhiOKjuuHmfP/5H9pi3IgiqYnrtO3Qdv5iPhjXC3WacM7++Ons18d88SZvuVcwbPgbfF2R5OVvuVma+YzLEHGxJ/g9zexgONq80NvxseqWzum9DcWvcW0xgLgZyT+k5Zy8tkLFwBZsGv4q3nb3kS90X3YyywUk4+5i7IhFl74eRyrKy4j3MHAvgQ/hTMVZLzQyfJzqW96zlFa7BD0UxaphmbfuRRPqkA7RmwrxZRDdWXw1cDBxL5OXJqeTRlvlfzSJau5SucA8zx1vaACixs6Rhm4M6i/cw07zhSgpzPj1Ej17Wr+c2vSI78EoqUx7bTPw5k9HgAwdXM2W5ATy6sGLDK8pmMS+H4d1qIosLNpN2YBzhIaX92IIg3Hn4EN67OaTv4/1vN+P3wXwWF+joP3MWE0J0cCSRmUsMeEX1pVdCInGa7aO1r6d3pHMAKDawZlY8aR59GRmZyOJEB4Nk7mamTk4lj+bM+Hweo5pbv1Ld/Hrp8urjoj3MHLiaNHyYEPc+k9tVsZwrhrQ5tuOK9UZVevcHjAAAIABJREFUhqx4pd56euKfWEncAa3RQMlxbnWqufj4eeuI6daZzD2K0RQeZFL4RlKWzeaLguaMjHJjccIeu1uS/9PcHobDMe1+50aOxStWnGnfhgs/pSqeAt9w7nc1MNNOWoUU3v18MwNMb67zc25f9BLY2+fimGXv+fS1cSzyBKhKi8F94PdS5K2v2b9972YWLawMgNt9/YhpqKMaAHsY17sbM73bMnrWS4wKq0lG8mqljKg+DLBdf3/CJMshxvWIYJz2nEcj/GsbSHdUZx2Dlfsv44ME1tT2VHaRa+6Hn5uBFDVvVvJm5b0AfUcwPVJpy4ztiUr+Ad2tdphT8MPL0/aYIAj/BvzbdaEr+9iy/C1iAa9Or/BaXx/gIlsWL2GLRxcSxj7B+ROJxH2n8RYcK0vnKMcvfPMxM9N1xMx7ljEFOSxOTLU7SGZsiFfyRj3Bs81ziH9sKOPUB/Ie01cSc536eGB+EnMLgOYDidYaDQAVLflSXh9Krde1J3U08a/CsfXqWLRrq7LLb+ORzDAZDWAzzmnkAMheSfzGGuh2ATQiqJ5qDB1YzcwEI23Gj+fV+75mccIeB97yf5bbIsah8Pgxy37nFS37pqe8PpRazSKoH7OaDI9GTH4zhuA8+2knTH+RHkDasvm8re6XHtJQaXzzvuj+mn3RUfZFtyvP4UNKxwxrZO7UZhnJ4Yv4eKYuiWfqklO4Vy9d3jaY9olXNoNS8sWT61oTvB9l4dpXmNypJl5AXm4qU5+ezaZTFpdWj+BA602vrGSxQ0QQ/kWO67S09UiWPeMDBVuZ8qa6O+V9/lZ58dAphlXiZraeA63LsUeQZcttsnPU3fRsN6gRBOFfg19bepi8iQ0GsnJ2F7yAwu8+YGySERpD1sdrSTsPkEqmXklaps4BuJTKW5O3kkdjyErg8135AGwyFWLGRjcWQfUO0YxsVxNlO+pr162PTdMEhAWW3J1XqxdL0IHgBpZxAHR4eQAHE9miyWM1zl0xldeaN6cPJBgjcTPnswblWJAfUGwgfnocafjg9+d2Fn11jGCAfXrz7p63itvCcDiYqdnv3Oxy9yc6qgvhHkqa6BnvMKG1zkHatoR06kpMtA4KjIq7yLQvu82+6FOXKLEL5n3Ry5LH9tiIRZzev139jKTNX6XLa9mRM5rt5nzbmRwGhUVQtUkXJixay+9rRxKu1lV4xSLL+fx8a+GK7cvy1ZPK6fCWflQtpU7LtTVnwMCBdAXyChT3WP9mARp527JsfQJvRQKkEP9VjrVsxWo0D0bSVq8mBfCKDqeNxDcIwr+UWvg3Vf7rMbQvbSpj8eYCpG9l6pJ44tKVNFnHFJ1Rps4BMlaZ4iP2Ebcknqkb1BFX3QFZi5UOcvOnx5gYejU6A7QmsNr162MzZ/PVAE5TPdjP9+FA5Xzz5gRiqXdy/FpWP+sD5PDu+j3msqzGFc1OzWGP9SUmBMvY1SkQ/4omDwyYH1bjU5UHNHUr8VvJbTBVoQkYCdQGRnYlZmo01PiOiCVG4nf/xpvdAx2kvRf/2jqCzdu6ojx5O7Uvuk/p8tgc8z6wlUULf1SPB9GjQ2Yp8rblgtU+8XGoNi2BvR8go994Pve7lw4ta3Lyp1Rl8O3UhQ7eNSGyLV7bUkmZNYwH1oXRpSVk7N1HUOx8wkvI5yAwskSd/SjS5vVrzKjoJWyJN2LaF94SGPko3XxrwsNdIHkrWz74howB0QSF+MB3OWx6cxRRP7fG+7dU4o9chOrhvPVs6xLeEUEQ/i0c49cUUJ7sFb1pSIxj6hHwip7LL5OU+z9jYTcilhhVl7qbtT61o3PI3syceQbw6Ms6U3B1ehxNB8eTpw6S/uaRqiYdItvCd6lsmjaMh7/rShsy2PojyjhwPpMX4Tr0cQzhHQbSZkk8aYkTaZfemq731+RkxkHOd5vCe//X3r3HVVXl/x9/zeQgoXaRRoT8CpIBQogRJjkhNF7oq46mmZkxYWaZGjoyXSzH/GHpqDk66Iha5mSRqVGoqRNeJoz5GqZjEWMJeTnHrzcstVAJiL79/tj73OAAW8dbzvv5eJyHuPfZa6+9D6z12Wuvsz8BjnYx3Hkx6X1iZE96xjYn2q8P0fMWU5ydy6bRsfS9zrNfcU6MTAonmEBuThvA1BFGABbdKYRWZ3YyddYmjhFF5vvzjTluX2/isW4v8k7tlOSXwKUfcag9YaTUMbGlPTcDN8f0Md5XsIcvG3kvbfswJsW4PZHQqS3XNJQXHcc3Kxquj+cyz+Gt53dXcbyh+uKW2/5QIbMd2y3YQ9X/VUGnQKp272Tx8k2sPeFPyvA/sNoc/mvVbwqrZw0mJdSH0t0FZC3fRhmxJNzyVd361Z4YWd8+fWofmw8JKaPoibFtx3aubR0TgK5J6k26H3DoddZ8XE30o7NZPjyBzj4n2LhmE9lmvT/Ke4G+l3imr4hcQGUlfHwIjKF5jNHcGYVAFBNTXBcNAW1ijR9KjmCv057WbnNOs3FOJmuBnk8Odn0jq3UgtwOYnaS7VgOm8NHUAfQMqGb75lyyPjpBwB2DWTSrN9eca3vsB74xI1j519GMiG3Jd/uMdrn4O3963t62TrtYd2Jkrb4oorsxiuAYra3dd9Uqz7frYCaat4ESwttSvCyT2YegVcojrjluNwRizMmvf7T8YlGuChHxoFwVIlKbclWIiIjIOVHgICIiIpYpcBARERHLFDiIiIiIZQocRERExDIFDiIiImKZAgcRERGxTIGDiIiIWKbAQURERCxT4CAiIiKWKXAQERERyxQ4iIiIiGUKHERERMQyBQ4iIiJimQIHERERsUyBg4iIiFimwEFEREQsU+AgIiIililwEBEREcsUOIiIiIhlTXx9fS91HUTkIqmpqOLnfk0bvGIoP/09ahdExF356e+dPze5hPUQkYuiiu/e+xNVa5fD98AvYvh53wyu/k0ov7jUVRORnxzdqhC5wlVvmkxVrhk0AHxfxP/l3k/FplOXtF4i8tOkwEHkiraP6r+t97K8ih//to7Ki14fEfmpU+AgckU7xY8n61l18hD/d1HrIiJXAgUOIle0UH4eUs+qkA6a5CQiZ02Bg8gVrQVN+z3qZXkoV/Xrjs9Fr4+I/NTVEzgUMzM0nmah6az+ylhiW/4EzULjGZpzHI6uYWhoPM1C42l22xBGz9vBtzUXr9IiYl2TTmm0mL6Yq0Ii4PoICEnDZ/oqWnRqeqmrJiLnWVlOOs1C4wmdU2wsqNlBRmg8zULnsg3YNt3su0O7ETt4FitKq896Hw2OOAT47eDTPWZl9uyos37yykLOrHsY5qTz58Kz37mIXBxXtbqdFs+v5Lo/reS65x/Fr9WlrpGIXDB+PrBjPzaAo4cpqb0+6Tn2la5jwR2fMfzZNcb7zkKDgUPiHXGU2A8DNnZvDyKmjZc3tY4jMamakqP6apeIiMgld3sciUU2ymqgck8ptjZBdd/TpAVdEuLgk8OUnWXxDQYOHWI7Yttlo7LcRhFdSWx/lqWfA8ctkWaTtlJ50HFLZDJ55eYbyvNJN2+jrDh6irxx8a5bKO4+f42uofE0u2Uu29xuo9iWPmoO06Sz4qjb+z3KbbgMl2q2TOpmlmcMA9XZv/vrtkd5dv1hAIoWDKRZaDxdpxebX4nzcixf7WDR75/g17d5uy1k4dhD//0hKfmJOWNjxaRHib3Fy+deU03ZP+YyMDSeZsPXnHVjUW8ZHvuMJ7TrozybU6rbl2KRqy3ruqDUtfjMDjK6GcvT17tfmHprd11l1Hk9uJLX613nfrV9nBXDjeUzdwBVW3k2NJ5m3V6jCMCeY/zed3uNohOO/sLtdUsfHn65lEpc7XvodMftglOUvDeX0X37EOp2mz8j/5T3fuajucZ7+udg89aXmK+Mj+o7px3p1H0Hu+1Q8sVWEhO7no8PyqnhyZEdwkjcUkrJ3t2s6hxGp/O6a2+qse8ybon0jwqBPaWsBoiOJvwa8y17d7MKoE1HIlrbKNoMEESXSH+PkspKPjM+7O4diXBMHT+aR8ZL5gfJVuwH3TZwlMtWMt8urb8MN5WfLCHjTUdnbMPmFog4t701mWlpQxl5aws4Wczcp3PYVnMc204zgHj5TfJOGtt7HMvBNTx81xOk537GNzclM3ZANCEnbSyd8wQPrzhc9/3ejv3WZKalDSL1pqaU7Mhh+MC5bKnyfublSnCKvOceYvibxVSFJzPyTsfnPpW8kjUMDetG6EPLyDvX4o96K+MUq58ZwvA3iylpGsfYB+O4+mgxc59+iGf/plFIscLRlkHRP3abHXk12+ZMY+ZBgDBiwls43+293a3GN2YY09IGMdgcGe/SayjT0oYx7aEogutdF0d9Xzqq3L6VFQAHy41gYI3xe588shcxdkc/1JWn04Yxtrs/ARXHWTl9IauPutr3ezqGQM1hVozqQ+y4ZSy1QUSvQTw9II7EwBAi2rfw2s/YSs2pAZ1DaE0g96cNY9qAaGOZXzRj04YxLe1J7o6q75y2pFMsFJXYsO0MolPU+Z0G3fC3sZqH0Om/8ijcforEqF/BvvO6by8OY/sMwIdO4UGUFG41FncOcX64tpJ/GVc5iWGEH9zPjAqArnS6ybMk2y5j28TYEK4FoJot86eysiKasQ82Ze6bO/jUdhzi/D3LBYrmLGF1ynRa1ynDTY2NFS++xja/QYztncPcHDMQaV1r//0eZlxqCAwMwnbXLPIqjvNN+X4+3ewoKJ8Z2aX0H7CfT53Hcoq8SbNYWQFdxi/m72lhAIzs+BBRGaXk5RdTlljl9v56jt2x77QkAsKeYGZFDtuKnyQxzspnIT89Noreqwa68vz8DO6/YQfXhj3BzIo8io4OIjltGJ1sW8l4r7TRkrzya+elDBsl5vOl+j+bwR8HQadDfRieD0t32cj6TfT5ODC5kh10tH3AR/+kpLwfrXctZPySw+bCOCKCzR/rbXf9SRz+OIkUM/PVHCCI/mPHMi7SsZOoBtZ5c5zVS3Jco3JndrBq0WEgidTeQdjyHP3QIJ4Z3xXfmjh8w55gJjaOfrWfbzaDI+ApWzWZ4Zur4dbH2fr6MGKaee5p22u1+5lTlOw0/r4GR7XDNzKOcZFQlpvOc7lA9weZMD6pbp9US3BYHIWfbqX1zltIHnl+R5sb+TpmEBFxW5kx10ancC/3SADsH7A634fw1i28rz8b5TaKigHuIuYmV9Q2OKqd+YZ6RiTuCCPYY4K4jd3bjZ+6hJkhx+fLyHizmi5PPcUf+xsd8eo9h+uUa8gnc/kaPjXLiAmue+zfbvgrGZ/4MHLmSH53uzEM9KnNccvAtX/HtrZ/bDWu0pJuo9NJm8dtjaJFb7LiH47RlRCCq/5JXk41EMfIAWF1z1PrFjQ9m2Nv0pSrAfCBq+oWJ1co5+cONIsmdfzjpCbccO7lXVNPGX7nXqRIpaMtAyCP/C15ZDy6zLgKB+geToh5idtwu4tbEFL3gqrBdbWc3PQmmfmO/9koXJLDzAoISB1E8vWu/iKxfRC+wLeFZvveJon4Jo72PY6I4FKWzzUCg7FpQ4k5mkNv562GJ1hx0NVeb8kYYi7vycD3AHzoEOIaTa57Mdywq9uHEz5/IQvvjPA+qlJzii3v58OtQQRYKM9do89xaB0STVlFNBFeJkZmDI6n2cAcrpswn9/Fn4ehEMftguhowv0cV+VBdAp3nDwbn24Bx4jEUftnxuLodp4npuowu4sB4oj4L6DGxtJJC9lGEMHH/k7mOhsxAMXmrFPnSAc8Pe05+gPb5s9ihllGp/a1ju3MVqY/nUcZ4VDyJss/MoZkV+/eX2v/MHe4cS8uatJWuD6JZVP6ce3/2tgCcMdYljwWBBV5PPviGmODziGEOG+bhBHiPO/V2PcYUWhi+yC+sXrsYPzBAEZAVu/Zl5+8aJ7eV8iZfbO5vzVw1PG5X9h9Jo8NIwBY/cfJPDtpMlPyAb8wpiWHX/C9y0+fsx3vnUQqMHfcZObSlZG9jXY/Jrad0bE11u7iFoTUuaBqeF1tc19eRhFJTBvfFdhB5qJ8IIhxA+PwdesvHJ190EPLKPILY/Lsx4kpc7TvIQSc3M+nBwG60inCB35oQXLaIPr/EvC7hYhfuvqKutzbay8XhI35ZRAdqKZ1RFDdQCN/GqFhfRj/WVeWzR5U7+2a+tRzq8JogACIm82ZAebiJYXcD0A/lu3rd5a7apzts62UAQF3hBPy9X7zKyTN8XVEm/94nxUHAb9+dIk8Rclr5nBO7dGQvaXGB+d3CxFt4Nv1fyXjE4DDrFz6Gisd7/vImHUaUuEY6ehKp+53k5Q6i9VLq42hKLMMd0Wvz2VuBUAxi+a5fepfHMYGhDj3H83YAU1Z8+YObPgz7bXp9G8DRe8ZkWNAXDT3D/RhxcuzyKswhpIGR7WDH7a6hshqMD6lg++z6E2AaO5P8qdktrVjB7Btfs/4g+ndlfhrkP8ENYdZMWmW8bn7DaLLBbxjEH7Hr+nkV0reyR3MfdNYFhD5a5LC9HgpaYzbsHz3B0msyGdpvg+DX3iYxPWPsgiIDw4ELLS7GBMBAQLi2tXpDBta503M+OGMjF7Dc1RTVgHcOpT+0biNjIeQ+mA4ttw8tlRA6h/n83ScD0UL3Pbzw36MaWXVRlselsy4UH8y5uVA93a0drbXw9j6r8eNC9qP5tLswWWec/vK3fqoRr6kEDBoNmcGGT8//a9CngYgjDOOqQYTCjkzwcIJaMClf3Lk58sY+NBk0h8fQp+MUiCEcf2ioXUcybcClJJ+d7wrqgOSnxpEYlPXhJqPs8bTu/9DxmtOsdtkkwhCzuzgz9PzKCOarA8KObOvkDPbMhiMUbbtKB4TLkN+6UPisLEkO+rXvdYwz8E1zHjJBn6DWP+FWd47w4yI2AxEXPt/kAkvZDCtO8Bx8nbaALeJM+EhENyPcamOBtYcXbkpnFQAljH8vyeQ/vtHib17GqvxIXH8WO4PtnDsLUtZNWcWo/v24dcZxUAI00YnWxrikp+4M6VkDh1i3FclhMmvjSXxgj3r6TAr/t9C8iog+Q/LOVO6nKxboWzHQka9fo5zKeQ/iGuSd6fwaJIeGsu0CdOZ/psqc8TZnBhpod2t07Z6aGidN0k8kxKGb3NH2+zD2LR+Rl/g7C/uZuQLGfzxEeM9Sz8uprL2flr/iv5JADsY3n8IoyfNYvQ9k1mKMZKCe1/lOCNuEyOdNfXooyxU/wK75IGDrWQHJf/IY9EGG9yUxLQ355uTVoJIXfgXpvVynDwfwiOTmJy5nGWpIR4Tamx7S9lSbLxo2cLjXpDt9VnMPAgBqSO53zHB5pdBdABgB7v/t9aES/DozD3vJ50i7yXjKi752aGuxjgwiHjAEYh43ovyJ+ZOY57Clp02vq3Z7/kHgXugYt57uz6ZP77zJCPj/Plubz6LcksgMpnZr+eyPi0aXwvHzsGtzJyXw9LPqwnpNZRl77/eyGQguSLUHGbF70bw3A4jaHh6iXEVdOEcp+wT46f4jiHQJISIzsb/i77VV3ikEbXmHQQkDWXcY10JsLvPE7DW7lKnbXXT0Do3vuYcsC5PDaf/9YDfNcYoQJvhDLnT+Duq3V+E32qOvm8ppaTOfvy5f95yljwYTXiVjaVv5vD+CX/ufuw5FgwK8zJvwXNipEOdPuoS+9mPP/7446WuhIicH2U56YQ+vRVH0DA5yd/7+qTn2Lekn9dJUce+PkWrG+pvXD3LaMfS0EfJwHiS7NNxxiNtf/0y8NgrnJmgb1WIXAnc24VLPuIgIueLjfffMO+vPjiWZ2oFDRfa0WOngGoqz1zU3YrIRaasuiJXipqvsZlzxiLKP2PRnM+cqyIGPk5ycD3b/VvC6ZLqA0urWTQpHTY3JS8XwIen77wcBlVF5HxT4CBypfjalcxmy3uvGbO1TZMTLlTg4EPixFzWt3yJjNfyWZQLITclMW3yU4y7U9+qELkSaY6DiHhobI6DiPzn0RwHEREROScKHERERMQyBQ4iIiJi2eUROJR7yW1uvoYu/9KZZ31ojiOZyWFWPGgsezbfeFTztx8tI/2hIUSZ20X1nEDmR473n2W+9zNbefYWsw7Taz1I3L6VmY8/ROwtrpzqA5d4PiFv23T3+tpY2j+eZqGTySsHqnaQcUs8zUInsPrkKY9jq5PD3Y1ts2cu96iej7LI8bavdrDo90/w69tcdRo9bwff1ngeu+v8lZLZLZ5mod2MvPMiIufZthe9t+kP57olpdqbw8DQ2u0TWGm3HO2l52sgmZ+7FfP5a3QNjadZt7lsM59H9u36ycZ7h69xPdofsC191CwjnRVHzWMw2/LQOW5t8sl80m+Jp1noEDI/d9XT9epG7KPLKHL/WrK3PuUs+r2G+oZL4fIIHCqaE542jGmpXY2ndBFC6vBhTEsbRuodlc5HknaJNL+XXmXj04/AkYDKlpPOrQ/OZdHOU4QPGMTIW1tg25vPcw9OYKkdzi7fezVFLzueiQ6U7nf9clXtIKNPOhkbbBCSxNgHk0hseZyQ1oH1H5t9B6uLAU7xTQV8u8E9y5rN7djwzOHupvIfs/j1o65c7mN7hRFwIoiQYODgGh6+6wnScz/jm5uSGTsgmpCTNpbOeYKHVxz2OPbVc9+jqAb4ypF45S5ivCTfFBH59xynMshow6elDSXVkazJryv33OHvfM/q6XONrJK4ZyuGxtst16Odkwc49jOMaWljudutTXM+gv/gMpZuMC4ObSUfABDTOcL1ALSjeWS85OiUzVTdQEh7IwNn2YlTVAJQzbZFc1lUYTwrZWSkqw0fnDqMaQ92JdyvmpLNc5nxN0fAU0+fYrnfq79vuFQuj69jto5j5Pg4+GQhmUu3Gs8A/8Mw42QeXMPS2qlQ3RM5XZPP3P+3lTJCmPbWcsZFAwwipv8QRhcXk7/zOKlXnUW+971ryJhnI+DBQdzzZg6L8m3YgACg8qN8ZlYAv+zHH994kuTrzW1q6juwU2x7a5n5h1ENNYdZ9ZpblrWDa1yPWw3eT77XR6JWsy3PyAsfft9E3prYlWubmPtscoq8F2exsgK6jF/M39OMv5iRHR8iKqOUvPxiyhKrXMd+cCGL/nYvWTeUGIm+3JOoiIicN/4kDn+cRMCWk86v9wJ+YUx+bTr9WxvvqMz/K+M3V5P84CB838xhdel+yog2OnO3x+p7bbf89rPU7FgTH3m83sfpOx/BDyx96R1G/ncvdu8wRqkTOzg64Wq2zJ/Kyopoxj7YlLlv7jBSdcf5ExASAmyFfV9zFAjZu4YZLx8Gv67MGdPVow0fNuFxEptCpybx9F4Ktq+OA/719ylW+716+4ZL5/IYcTB5ex63K1d7Dr07mEM5fRcaUeQd7fD7xwcsqgDuMDOX1dL6+hZnke/9FHlz55Lnl8yC9IfpkgRgM56DDvg29zF+qb/KYeBt8UTdO4sVpdX1h1971pD5siM42cHu3A0s+gRnljWPNK9H3Z/N7l6ID77NjO/DlyxNJyisJwMnraGkCij/J3k51UAcIwd4GTpo3YKmHscOS+e+w4ovzPsTHYNoXU/VRUT+XZU75jL8aePCbvJri115U2pKWTQ1h7KbHmfy5GQ6AZgdKlCrzfbSbjlzWcCnby8kc85CMucsY8tX7nt3paIG4OASlq7aYY5WhxHxX2ZdPl9GxpvVdHnqKf7Y32hHnaMfbULoD0YiLUf/ACQ/NZb+rd3qGR1ipOou32F28kHc0zmExvoUaKTfa7BvuHQuo8ChGvsu4xejf1QIvuZSZ652L2Ji21FhDjsR7ZYqtcqR49z45bCa770yfxGj3quGcNj92tts+xZgK85073Fj+ej1sYy81Yj6bJ/kMHzgElcAUsvql5exmiCmjR8KwNJFxntThyUT4n5sHYJo/b9mDvekEDOIcenyZC7rJySbIxynyHtzGv/9crErYxphhDhTf1dj32PMuUhsH8Q3jn0Mf44lScDeJTxrpuR2P88iIufVwTWMGraMbfgweOZsj2Rrtjdf4rm9EBPyNfnz8viiDUApNvMWwdFG2i0c7SWHWbn0NZ6b9xrPzfsa3+tdu3f1A3HMnjaUGKpZ9P9msQJjWUQwUGNj6aSFbCOI4GN/J3OdzbjiL95vBDGt2xlBDTZs699hxnvV0GYozwwJ8axn8Sxjfl2nJ5h50IfEtAzGxvk03qc01u810jdcKpdR4GDj0y0APnQKDzKXuWUK+9M6I5XqvndZcoexNrFDCJVVxrATNa5MfLbcHOYC3NqPxJtq5XtPMvYx+IWHSawy7kHFBwe6ImCAT/J4bt5rxugAUGI3os/KKgi4cyiz39nI4QVmRrSKavPeVz16j2RY7yASgbKKavAbxP29WlA7C5ozV3x0O8/EQzXVVOJP4mMZvLttI++aedbLqoAfql3zLxy3Sw6+z6I3AaK5P8nfbR+/ov/wQQQ4cst7nGcRkfPoTDEzH55m3EZ9bD4LBrm1NSfzmWvOJyjanMNz83JYeRAc2Yo920bv7ZazvUx7xewXCjmzbyxd3DtWt1va8UMGMfJWoMJsM81R5m83/JWMT8AZgCzdalwIOlN1BxFspsV+9umFbMOHkRMepktTz3p26TWI1EgzMOo9kbfGR+NroU9ptN9rqG+4hC6T+AXPiS+OuQweudq9T4yMOJUE5MOSZ/n1wa50OrGDVTuOg18Y0/7QjxBKWOme7/36sUyLD2HIb6pY+Htw3Dey5Uzmub0QkPoXPp8chy9QNKcbXedVG8NWXxUzqsss7NG30aUjFG02PswuaXeZE1u8CWLayGSubbaG68wlyU8NMtPCuh8b2Nabv0hvv0TvfPPNIQ8yJSmPxBcPk9g5jhg+I+8fACFMTg6HkMOkAktZxvD/Pkxyx+Pk5xVTgg+J48dyf7CNuW7nzzdyKJNvzWH0J7XPs4jIeVJzmBW/G0PGXoAwIq76HxawacxWAAAgAElEQVTN+R8AIgYO57o3jMmFyS+8y7sPBgHHWf1oH4ZuNjvUO457tPt1263j2LKM9rL153lkmmVDBP3HJzlHnp0TI7tHEEIQ4eMHkfGQ0ZHHxLYj4MwOMqbnUUY0WR+8Qmow8FUeD3eZzEozVXeXNv6EhAH5ZuCS9CTP9HbMM3C14f3HPsm4qua8f+9rlK0v5tOqZIJzFzbcpxBkod+rv2/IykzmUk2VvHwChz1eJuzVytUOeE6MbAPXtp7I1vKmZMz/gLwNeWzz8yd5wFjGPTWUxNZ1ywiIHMq4JGBvjuu+0TX5zH1xKxDN5GFxzuGi1v8VB2yFLw5jq4CrI32wFeezrRgCWkczcsJIJg+PrjPc79vUB6gm4DdjGRYNlF9jziVIIrVfSN1jc05+gbKjpZQ57n91bEGLH3xIbHqYLRty2IIP4XHJzB4/lpG3+gDJ/PGdU/j+8a+s2pHPor3m+rFjGXmnP7hPvrwJIIj7HX88mhgpIhdC6QYyN1c7/sNS51fgu7Ls9mU8u+Qw+A1inHMUwp/WNwGbzbkFBw833G45J0YaIxaOb1/QPYMhbtVwTIxMjA3hWoA7XQFIYocQil5/iJkHISB1JPc75g78MogOgHP0o43jmxVGqvppT7qloq/TP3XkfmAuW/n0k3xWN9anACGN9XsN9A2Xcn6aclWIiAflqhCR2pSrQkRERM6JAgcRERGxTIGDiIiIWKbAQURERCxT4CAiIiKWKXAQERERyxQ4iIiIiGUKHERERMQyBQ4iIiJimQIHERERsUyBg4iIiFimwEFEREQsU+AgIiIililwEBEREcsUOIiIiIhlChxERETEMgUOIiIiYpkCBxEREbFMgYOIiIhYpsBBRERELGtSWVl5qesgIhfJ/31Xxc+ubsrPGnmf2gURqU+TS10BEbnQqvj+b3P54f234XvgF9H87O4/0OS/23HVpa6aiPzk6FaFyBXuhw9e5If3zKAB4PtifnzvIb7/4PQlrZeI/DQpcBC5ou3nh415XpZXwca/UXPR6yMiP3UKHESuaKfhm3pWfXOYHy9qXUTkSqDAQeSK1o6fta1nVdsINQAictbUbohc0ZpzVe+HvSxvx897J2lypIictXoCh13MjkzCP3ICa782ltjfTsc/MonU3BNwIJchkQ8wfzdQVcikyF5M+rD6olVaRKz7ecdRNM3I4udtw+C6MGg7iqsyVuDTsemlrpqInGfHcifgH5lEh3m7jAU1O5kamYR/ZBbbqaZgWi/8nyygHLBnj8D/gVzsZznZqcGvY7by20nRXuh7Axzbu9O1om1PUpIzmfXBHh45to2sGx8iv6vPWR6eiFwsP/tlHD4Tsi91NUTkYvDzgZ027EQRXHaEUucKHxL6P0T0fRv48A9t+Wb1HlIe7knwWT6YocFbFQldYik9cASwU/LPQKJvdKxpTo/7BlD2bi5Tc3OJHhxPtJ4IISIicunFxZJQbOdYDVTu3YP9xkDXuqjujIgpYOOclSze1YO+Cc3PuvgGA4eITrdg/8JO5akDFBNPwk2udb639+EJ1pGVF8WI5PZnveP6OG6J+E8ppPLQOlIjk/CPfJGNp8w3nCrgGfM2Sk7ZaTY+meS6heJudzZJkUn4x2Wx3W0Yxp49xig/cgI5ZW7v9yi34TJcqimY0sssL4vt3vbv/uo6hkl5RwAofuUB/COTSJq1C+MZfV6O5eudLJ6Qzt1dHdunMm7BTspr6nl/vfvuxR0pmeR8qdtJV7wzdnKmjOGOOC+fe001x7ZmMSQyCf/H13HsXMr3VkbNaYqXv8gQ8/e0w11jmJRrR8+eFGtcbVnSK3tci8/sZGpPY/kzee7PHPHW7rrKqPN6+B3erHfdOuzOck+Q87ixfPZOzNvwSfj3zKYYzFv05v9POvoLt1fcQB5bsodKXO17h1mO2wWnKV2fxbiBA+kQ6WrPp3542ns/sy3LeM99udi99SXma+q2+s7pLcQk7aTkAHxZUkhCQrzbukD6/TaB7LfXUZbSm4QWZ/+JNTw5Mrw9CQV7+HJfCWtua0+M+7ofyvnm5NnvsGHVHPjCuCXSt0Mw7N3DWoCoKMIcB7evhDUAN95CeICd4nyAQG7v0NKjpGOl/zI+7KRowh2jIWWbmPpn84OkkAOH3DZwlEshf3l3T/1luKksep2pyx2d8QHsboGIc9uYHkwZNZgRMc3hm11kTcxle80J7J+aAcSS5Wz6BqDWsRxax2N3p/PMmn/xbWgPRveLIvgbO9nz0nks50jd93s79pgeTBk1gJRQH0p35jLygQUUVHk/83IlOM3GyY8ycvkuqm7uwYiujs99Jhu/XEdqx150GLGSjedafJn3MuzLnyFpyiY2VrcnpV88153aRdbER5m8SQ+YEiscbRkUby0xO/Jqts97idmHANoTfbPrqth7u1uNb8cUpowawL3myHjn7oOZMiqFKQ9G0rbedbEE11Oryn9uIwfgULkRDKwzfu97PtKd6AOOfiie9FEpjL6rJa0qTvDOrMWsLXO17/2ig6HmCDnjBnLHkyvJPgDh3QeQ3i+WhNZtCb+pudd+xv6lOTXgtmACaM19o1KY0i/KWOYXxehRKUwZNY5ekfWd0+vp2AmKv7Rj/zSQmA6/8Fh7svxEPdtZ03Dg0DyYmDY2tv1zDwmRIR6ryjfnMrvdYNKTd7F43Z56CjhbR7AXA/gQExbIlyWFxuLbgp0frr30c+MqJ6E9Nx+yUVQBEE/Hdp4l2T83tk3o1JZrAKimYNFM3qmIYvSQWACK7K6T5ywXKJ63lLXfeCvDTY2dnOnZbPcbwOgBUDsQcW7b57eMSRvNjBmP0BOg4gTfnLJR9IHjnQXMemsPeBzLaTZmZfJOBXROy+Kj7D/wwvT55D5njOxsLNjFMSvH3ue3jEkbR+aqKaQDVOSyfRdyxbJTvL4aiOe5P/+BGQsdn/smistC6DkqhYm9/43RQT9vZdgpWG38UvWdOJPM6dOZOwSgmsWf2r2VIuLJ2ZYB2z6h9BRUblvMU68fMRfGEu74SnG97W5LEh4awZi0HkScBAjkN2NGMyZtBGN6dGhgndsQvocTrH091zUqd2Yna149AiSQcnegWz90D79PG8ELmX8gBQA7ZV872ncj4Dn2XiYjP6iGmBHkb3mXVfPGMXH6bFa9+wKDbvTWz5ym9FOjT703MgTfiB6MSRvBfV3Nq+ekITyVNoIxaQPo3MBoQdubY9l2YBuln0QS7na3gJo9rH11FyMeGkxAdq554Xp2Gvk6ZiDhsYX8KctOTJj7CT7CmjcK6HnvAH5/3wDKXl13fq5kTx2geBdAN6JDXVHbvc6gpZ4RiS7taesxQdxOyT+NnzrfbIYcu1cydXk1nceP54W+RsO3du+ROuUaCvjL2+soMsuIblv3l6t88xtMLfJhxNRHSIszhoFcgYhr/45t7Vu3GVdp3W4l5qTd47ZG8avLydnqGF1pS9vqT9iUWw3EMqKfl4Y+oDlNz+bYmzTlagB80Pfv/oM4P3fAL4qUtBGk/OqGcy+vhbcyTnPMDEZjgo2Rr/D+s1m1eDar+td3LSfiUuloywDYxIcFm5g6ZqVxFQ5wV5hz8l7D7S61LsBq7aihdbWc/Pty/vKh438H+Pj1XGZXQKuUAfS4ztVfJIQG4guUf1xotO83JnD7VY72PZbwtnt4O8sIDEaPGkx0WS73OG81pJNzyNVeF0xLNZf3Zch6AB8igl2jyQ1eyHpx9U1hhC1azCtdwz1GVSo/XsdfTg6g7/gBjIgpIPv9I/WWUZ9Gn+MQEHwLxyqiCLvRbeGuzSwuiqJv10B8b0sghVxyNp+HYUnH7YKoKMKudkRtgcSEOU7eAT4rAMeIRNkB81crKsRzuKnqCCW7AGIJbwPU2MnOWMx2Amn7VT7z3z9ANMAumzks5hjpgPSMp+gLbF+UyZ/MMmJuqvWNkTOFvDRxE8e4GUqX8/Y2YwLG2hJbrf1D1uPGvbjYKYVwXQJLJ/XhmoMHKADoMppFwwOhYhOTZqwzNrgtmGDnbZP2BDvPezUH9hlRaEJoIN9YPXYw/mAAIyCr9+zLT14U6Z/nc/zz6QwKAMocn/vFseGlMcRGJtHugRd5owhi2p39pCv5z+Nsx5MTSAGynnyRLOIZkWy0+9GdQmgFjbe7uAUhdS6oGl5XW9aSlRSTwJS0eGAnf3m1AAjkif6x+Lr1F47Ovt2IlRT7tWfijBFEH3O078G0+sZG0SGAeGLCfeCHFvQcNYC+NwB+kYTf4Oor6nJvr71cEDbmhkAiqCYgPNAt0DjNprdzYWACnZsGktA/io2vbqb4/Hwd02iAAIidzvF+5uKF+QwCIIX8z1PMhbFM3JF/dnuth724kGNAqy5hBB+3mV8haUZT8yq5fOsG3j4E+PWhc8RpSt8wh3PCao0I7N9jfHB+kYTfCOV5bzC1COAI72Rn847jfduMWafB3zlGOuKJuasn3b7MZG12tTEUZZbhrnjZArIqAHaxeIHbp15yBDsQ7Nx/FKP7NWXd8p3YacmUV16g741QvN6IHFvFRjGo/y/IWZLJxgrjnt29kSHwQ6FriKwG41M6tJHFywGiGNTNn9K51o4dwP7BeuMPJjmeLucwEUZ+gmqOkDMl0/jc/QbQOerC73L7l1Wk9Iun6aZC3pmXztXBa8nsreBBGuI2LH/XEBK+KyD7Qx/uff63JOSNYTHQpW1rwEK7C87b261iQ+rMXWhonTfRaak8ErWO56nmWAUQM5i+UbiNjAeTMuRm7Gs2UVABKVP+THqsD8WvuO3nBxvGYHy10Zbf3IMx7VryzYJcuCuEAGd7nUL+jhHGBe22LPwfXuk5t++UWx/lftvBi1YDpnN8gPFz+o5843Yl7Tn+ufmGOfn0NX8MHjKf40MsnIxaLv2XKHevZMisUoKv/pKNm42P/4m+URDQkp4xsLZoD8/0T+IZt016/u4eEpramW3GKztefpp73jBXdhvPy8GOySbhBJ/ZybxZmzhGFJnvzyelLfD1Jh7r9iLvsAd7GXT+2jXhMvgGH6JTRtEzO9MYekryHObh0DpmzbGD3wBW/c84EpoCRYvp8EA2x8xA5GrnZJchPPV8FF3KBpL6wQk2fmJnTFQL18SZsGBoezNjUhawMbsa5+hK6zBSgGxWMvKeI/S85QQfbtpFKT4kpI1mUFs7WY0d+/V7WDMvk8UfbGHD7hNAMFNG9rA0xCU/cWf2MH/kaJ7fWQ0EM/HlUcbv6QXW95kXyLwvkO3Tk7j7dcj+3E5m74sQschPmGuSd0xYFN2uG82U29tyX+8qXpkAzomRFtrd4CYnPNtWDw2t8yaBJx9oj+8+x6RCH0aP6mP0Bc4J+j0Z8XwKXP8hSQuqyd7xL2b0DvPcT0Agv+kGaz/cycj7Uim4OxY+3cIGjJEUSje5+irHGXGbGOms6T73Psryyb1gLvkjp+2lOynduonFm+0QmsCUv85hTARAICnzZjOlu+Pk+RAWkcDEWUt5LSXYY0KNfd8eCnYZL65v7nEvyL4sk9mHoFXKIwxyTLC5IZAIAHZScrDWhEuAtn0Yk+LjLMN9mGfjHOMqrueTg12NcetAbgcwAxHPe1Etib7DmKdQ8OkByms8J86ADwkpo4yJk457b9f14IW3xjEitiXf7Stg8ZovIaIHMxYvZ9WoKHwtHDuHCpm9IJfs3dUEdx/M0tWvmOdVrmg1R8h52hU0pC+cQ3rsRXo4WxPzD+LSX47IT0WteQetug1mzPB4Wh1wnydgrd2lTtvqpqF1bnzN0e3O41Ppex3gd40xCnDjQww2H3JYu7+4OaaPsVHBHr6ss5+WDPrTUhYNiSKs2k728lw2nGxJr+FPMW9A+0YnRjrU6aMusZ999913SpAncoU4ljuBDhMLcQQNE7u19L6+21N8sbCPce+4lvLT33NN8194WeOtjBCyI8cwFeg79V2WDmjJ9llJ3L0EGD6f409qxEHkSlB++nta3WDcO7nkIw4icr7Y2bDMvL86ZBS/rxU0XBjNaeWIDWrMr1ad5UQrEflp0aCiyJWi5jh2c85YePm/eHXev5yrwvqPoGd96bX/LcEk3BsFu3axdsYkxv3zGgrWAPiQ3vVyGFQVkfNNgYPIleK4K5lNwfpsY7a2aeKvLlTgAMFD5vBR0wU8P3cd2WuqaRUQz8Tnx5GuxHciVyTNcRARD43NcRCR/zya4yAiIiLnRIGDiIiIWKbAQURERCy7rAKH8t2bmD8hnbu7uvKb3zO9kErHG84UMinOXOfIc37KS15085X69h5njvbUXEcilCPkPGwsm/RhtSsXeq1X0iufecnv3os7xqyk+Iz7fieQU+bKv540a5dZ39Oe+653P26ZRb28p8NdE1i8q9r1nn1mTniPY/LcX8P1rfV6soCPGqz7/zaQ534deea2nq8HmL+bxuvsyDnvyHfvfg7cc9OLyKW1z0zOFJfpTGhYuTOLuyOT8O+bxfYzeG+fTY22j07VFEzpZbYjWR7JAGsr372J2WkjuMOxz8i+3D29kEpvbV3cQB5bssfYdyNtcb39kLe2ydGG3ZeLvVafwJk9zE/phX9kL+6Zt5PyGtd56DBrl6sePbPYbp7T8rwXjfIeX+dKOwDYs8eY9TTLvsQum29VVO7MYnDKSrabT4gcfTcUf/wJ3/jfgC8A1RQvcTyrHNhj4xhRtKpoxs2jUphyag9vZxdSTDApDyUQ1gzCulRRPAMgkNs7mN9pr7JTtA0cyauO/dN8RHNMD6Z0be2sT1j3qyheZGx7b0p3Ymr2kL2mkNIPspi1oQdLQ12PAA0PcD3OtHjJcjaNeIG+17kepXp7h5aunOt19uPKfun5npYc2LqexUWFPPO7lXTZmEI0J1j7pwXGo7BxZPd0fFfftb+G6xtPer/2XGdude2vQjj+akN1b4bvqRSmBJ+haE0u7xwyctn/JswHOoTyfa6xbc9+KSQ4c3qE09N5WPXX2floVbenoXnLTS8il1hoPINiMikoWsf2XeNICC9k6mMr2U4wE6eOoHOzaorneWmfAffHPdfXPjpUFr3O1OWOC6UDRkqAgLrVsedO4O6JhRxz9Be3N+XAP21cFx6M7751Hm1d5e715HxwgndmLaZXn+l0a6AtbqgfKi9dVadt8ng89L6drj6hueOx79BzfBavPdoeX/fHXkcHc6z0DaO8QyvJ3vwQnXs3x15qpOSMvi3c9XC2sk1M/bMjEDPTiHs5JxfT5dE0V+3kT4+tZDuBpC9+hYld3R4J6ojs9q1j6gI7rYYMoN/yXBZ/aMcOtAqIZURaLBQt5i/ZhcbzwyekGI8JPbSO7NppVGslgbK/YTwwJ/rXQxjzqFsKa7dtf/v7ESQ0hY5NkrgnG+xfn8Be4/YI0Bobaz5wbFjArLf20Lef56NU7avq2Y8b5+NH+/yWMSnB8CtYnLISDpVTCVR++AZPfVBNzyEDaLo8l7Xuf5xuj25tsL4xfUhLS3A9RrtmJ1MbrHtLEiJGkMAuZi/NxZnLPsLcdixAIAnDRnh9pHX9dXY9WrVvh2AzODz71LEicjEYmRQp2sUrf19H21czyarw4d6p00mP8YF9ud7bZ3B73DPU1z4CUGMnZ3o22/0GMDo5l6zcejrJsnU8P7GQY0Qx5e05jIny/Nqv/W1H23wPv0+Lx7cmFt+O6czGTtlJVxtTpy2u2snUwfX3Q9tnNfx4aHtptrHfNjayf/s6i3e7Bw3Ueey1fWWhs/jsOasY0as7JTuNoCkh3PHd6WoKFs3knYooRg9pStbynUYa8diL8XC3+l0WgUN5/npmVwBRg0npWus54k0ATrMxawEb/XqwfOxv+fZwLos/9IxGvT3L25XnPZd7bs31LLdLCAHY2WCmKuXTdcyf1wyAprcNJKXG3DaqrZGC9dROPjTTfPe7rTUH1hqRZt8OwfgeKPQYUit+dTk5N7Rw295OQT37GdHVNWJQO21q6b/MKDM5jPCaPbw6M5djoSOY+NytbFyey1q3P07nsTZSXw5t4Y15JcbPN/VkTIS9kbqbK7zlsj/g2rbo3cXMbwFwDR0fGEzCDUCDdXZccRgp0us7ByJyeQju2oOe7GLjkpcYCbS66w+8OCCQRtvnA9bamPLNbzC1yIcRcx4hreIIWbmFXjvJ4jXZxrZDfssjUUfIvi+VcWZT2TfjdUZ8YbR1CaGB+ALlHxcaI543JnB7O1cbU7stHnyqoX7ItV3BtFT8p7mv9CEiuDkHVptt7LZNLAa4eTRTHEED7uchlvC2bvUAOPQ62e9dj882gPaEtzGDod0rmbq8ms7jx/PCbRvIWr6z1kjzpXFZBA6O4Rm6hHlNd1r54auMXV8NMVD6xrsc+BagkBIbZjRazYEv3DpycztnnncvojuF0KrKlQu9+INcis2oOP2vIyjbZ267K5PYyExzKx8SRv2B0bHHyfmjsSSsbSCVBx3510ezKCqXkUs2MWmG+cHfFkxw1REW17MfJ7e6zH44idnOFcFMHNaNk8vH8/w+iL7rOB8u2MTuG4FDe7Afgs43uh1rI/WlaBPPFxk/9s3owyON1d3xGXjJZe88bo905YN5f5Sx3r58Tv11xhGIuOWcP4vUsSJykbWNp29MJhuLgNDBvD6zh3HR0kj73Gj7CHCmkJcmGlmMKV3O24dOAbC2xIZnJ+ka7u8bHYZv1Smu65bC6GvXk7X1NDFhP2JfabzTo4P3a8/EGSPozE7W1NMWN9gPubXPdXUjOvQIdmd340Mrv2qOfZnLxl2DCTMfye46D8G0+uGIWY9YZmS0J3vyShZPzTRvT8QS3haosZOdsZjtBHLvV/nMf/8A0UDxLht2oiylBr9QLovAwenkKSrBFaHVAJhXreDR6QGUHjgCXQKBA3xWAJ5Xr27DSNPf5eV+LTEmRj7AyG3mUND+wrq50M1tN75tbNu5+wDCD60je3c1JD/N62lR+J4q8Ojgvsx15F+PYlD/X5CzJJONFcaQ072RIbB/fT37ceO4heIxB8GfjoMHkNC0gGceMX5r3X/ZHdk9udF1rI3Vd+mH0+nrlpbVlTu+nrqbvOWydy4bNZ8v0molM/qmgKw/N1DnX9jN0aCmzim69nXrjEg9pgvRl0HqWBFx509wB6AI+qYOoHMzXKOKUG/77Go76m9jipc55kfsYvECtx665Ah28OgkK38wf6ipgqbB9E0bQcD0bLK2xhN27QEKdgEEkzLkZuxrNlFQASlT/mxkid29p962uPhj8wdv/dB+L9tty8L/4ZUQFUUYB9hk7ndi9nx6bnuUpHlH+MvqnTwSFYsvtdrQ/Z84b5l3ua8Pvu+uZFxRtXEe7wojuAmU573B1CLwvDADnGnErXxmF8ZlETjc3G0wnRdksz13Al2LYul5e0uOFn/Jt70mkXndYp7fB61SZvPJc8YHUDyvF0kLqs0hm0D42kbRIfC4evXI897IxMjr97Bm3mLMeJOw/nc4t/3NmHGMqWrGhgeyOZa3i6KqHiR45Eavlee97c2MSVnAxuxq576dE/7q7Mf1GGDnexz35Zxnp5rt07NYXAE9n3+L5UMCgROsHTOQ1A8cf5wnrNWXUxS8tRi7WfK1v0rmukbqbvCWy961LGD3JubP+8hcHk7ftC4cW9hInfvFk+63ktkV6xjSeZ3bb4Nb3nsRuYzUvUCz5zbWPjdttH3k0DpmzbGD3wBW/c84I2120WI6PJDNsTqdZEu6JcfDh4Wsnfwod3/Yk84Us+kjjPb42xKeAmOu2/MpcP2HJC2oJnvHv5jRO57yBtrihAb6oZcDHJO2w51tk/eJkT3pGducaL8+RM9bTHF2LptGx9L3Os821DkxMimcYAK5OW0AU0cYAVh0pxBandnJ1FnGCEzm+/NJaQt8vYnHur3IO2Ya8c7OyegX32XxdUzfmBGs/OtoRsS25Lt9O1m8fBPF3/nTs8P/kjWjEIhiYkqsszMNaBNr/GBGo+wtNaKxqCjCWphv8nZPvvbESHOSDIcKmb0gm+cXZPP8gj1UldfaNuIWBgFQyGf7a82nqJN/3YeElFH0xLV9vfvxc50D56RA876c0+6VTHr9CPgNYMwAx2hKSwLMY1q790jdY62vvuxisXP/KznGV43WHfCey95twlPxB7lmmdk8v7uKq63UuWksv3/rKUbHtjSH55rTuWsPZvx1OS90U44DkctOWQkfu1+gfVPQePvcaPt4mo1zMlkL9HxysBE0ALQO5HYAs5N012rAFD6aOoCeAdVs35xL1kcnCLhjMItm9eaaWnPdbo7pY2xUsIcvabgtrrcfur2tl0nbtSdG1ppjF9GdETEABWS/f6TuxMha5fl2HczEGKNqCeFtKV6WyexD0CrlEQY55kneEIgx/9wctb2ElKtCRDwoV4WI1KZcFSIiInJOFDiIiIiIZQocRERExDIFDiIiImKZAgcRERGxTIGDiIiIWKbAQURERCxT4CAiIiKWKXAQERERyxQ4iIiIiGUKHERERMQyBQ4iIiJimQIHERERsUyBg4iIiFimwEFEREQsU+AgIiIililwEBEREcsUOIiIiIhlChxERETEMgUOIiIiYlkTX1/fS10HEbmMlJ/+HrULIuKu/PT3zp814iAiIiKWKXAQERERyxQ4iIiIiGUKHERERMQyBQ4iIiJimQIHERERsayewKGYmaHxNAtNZ/VXxhLb8idoFhrP0JzjYM9hYOhAMj8HqrbybGg3ns2vvmiVFhERkbrKctJpFhpP6JxiY0HNDjJC42kWOpdtVLMloxvNxuXzLWBb+hDN7s3BVnN2+2hwxCHAbwef7jErs2eHa0VwMqm9D7NicymVH21lbpvhDLnT5+z2LCIiIuefnw/s2I8N4OhhSpwrfEgcOJyY994n/6SNLe+WkjosmZAmZ1d8g4FD4h1xlNgPAzZ2bw8ipo1jTQuShwzi6Ns5ZNZTzpAAAAbOSURBVOTkEPNAV2LOcsciIiJyAdweR2KRjbIaqNxTiq1NkGtddC9G3ppP3kvLWFScTP/EFmddfIOBQ4fYjth22agst1FEVxLbu9b5xvdjHGuYuz6akb3DznrHIiIiciF0pFP3Hey2Q8kXW0lM7Oq2Loh7hiWxdPkajqb+hsRrzr70hidHdggjcUspJXt3s6pzGJ3c1/1Qzjcnzn6HIiIiciG1pFMsFJXYsO0MolOU51SCk+XH/63SGw4cmofQ6b/2U7i9lMSodh6rvt2Qw8ybhvJ072IWrSn9tyohIiIi509wWByF9q2U7LyFCLe7BdSUsnpRMSOHD6X10hzyTp592Y18HTOIiLitzJhro1O42z0SDrPqtXySBw/imSGDOLpoDVuqzn7nIiIicv5d3T6c8PkLWXhnBCFuyysL15B5YhD9nxrEyFvzWbr+8FmX3ehzHFqHRFNWEU1EG7eFxRtY9Ek0/e8MwrdzEqnksGLDqbPeuYiIiFwAvwyiA9W0jgjiWufCU+Qtz4H7kujSNIjEgdHkLdpA0Vl+HfNnP/7444/nuboi8hN27OtTtLrh7Gdai8iVy71d0JMjRURExDIFDiIiImKZAgcRERGxTIGDiIiIWKbAQURERCxT4CAiIiKWKXAQERERyxQ4iIiIiGUKHERERMQyBQ4iIiJimQIHERERsUyBg4iIiFimwEFEREQsU+AgIiIililwEBEREcsUOIiIiIhlChxERETEMgUOIiIiYpkCBxEREbFMgYOIiIhYpsBBRERELFPgICIiIpYpcBARERHLFDiIiIiIZQocRERExDIFDiIiImKZAgcRERGxTIGDiIiIWKbAQURERCxT4CAiIiKWKXAQERERyxQ4iIiIiGUKHERERMQyBQ4iIiJimQIHERERsUyBg4iIiFimwEFEREQsU+AgIiIililwEBEREcuaVFZWXuo6iMhlRu2CiNRHIw4iIiJimQIHERERsUyBg4iIiFimwEFEREQsU+AgIiIililwEBEREcvqCRx2MTsyCf/IJPzjBjJkyjpKzwBl60h1Xz5rJ+UXtboiIiJSn2O5E4w+OjKJ2L6TmL/tBADbZyW5LX+RnH3V57yPBkcc+k59l+MfvEBC8Us8/94R5/KJ2fkcf2sIlUtWsqHsnPctIiIi591g3v88n/cfg+fHvEFBlbm421N88fkGZsRsYuS7X55z6Y3fqmgRxe1dYOPBE57LfzD+8b3qnPctIiIiF0irLvH0rThC2TduC2uMkYZWTc+93CbnstHUlCSmAglp8+lxw7nvXERERC6SD1+iQ8eX4IYeLH0r6pyLOafJkROz8zm+dhy+817k1d3nvG8RERG5WMxbFat6fEjqnIJznqN47t+qCA3jdo5QVXHOJYiIiMhF5UN4dCycLudcM9I0Hjic2smGPOjZpqXn8n2lfIwPaI6DiIjIZcf+QQFr/QIJuM59aTUlxTvhqnOf5NBg4LB24kD873qR4oQ/MGNQoHP51JQk/Ae/AcOnMOLcb5OIiIjIebeSuyOTGJD9C2a8+ggJjhjhw5foENmLcR93I/N33Wh1jqX/7LvvvvvxfFVVRH76yk9/zzXNf3GpqyEil5Hy09/T6oYWgJ4cKSIiImdBgYOIiIhYpsBBRERELFPgICIiIpYpcBARERHLFDiIiIiIZQocRERExDIFDiIiImKZAgcRERGxTIGDiIiIWKbAQURERCxT4CAiIiKWKXAQERERyxQ4iIiIiGUKHERERMQyBQ4iIiJimQIHERERsUyBg4iIiFimwEFEREQsU+AgIiIililwEBEREcsUOIiIiIhlChxERETEMgUOIiIiYpkCBxEREbFMgYOIiIhYpsBBRERELFPgICIiIpYpcBARERHLFDiIiIiIZQocRERExDIFDiIiImKZAgcRERGxTIGDiIiIWKbAQURERCxT4CAiIiKWKXAQERERyxQ4iIiIiGUKHERERMQyBQ4iIiJimQIHERERsUyBg4iIiFimwEFEREQsU+AgIiIililwEBEREcsUOIiIiIhlChxERETEMgUOIiIiYpkCBxEREbFMgYOIiIhYpsBBRERELFPgICIiIpYpcBARERHLFDiIiIiIZQocRERExDIFDiIiImKZAgcRERGxTIGDiIiIWKbAQURERCxT4CAiIiKWKXAQERERyxQ4iIiIiGUKHERERMQyBQ4iIiJimQIHERERsUyBg4iIiFimwEFEREQsU+AgIiIililwEBEREcsUOIiIiIhlChxERETEMgUOIiIiYlkTX1/fS10HEbmMlJ/+HrULIuKu/PT3zp814iAiIiKW/X/SjZfPApXGOAAAAABJRU5ErkJggg==;" vertex="1" parent="1">
                    <mxGeometry x="900" y="291.5" width="526" height="417" as="geometry"/>
                </mxCell>
                <mxCell id="80" value="" style="fillColor=#F1F2F4;strokeColor=none;rounded=1;arcSize=50;sketch=0;hachureGap=4;pointerEvents=0;fontFamily=Architects Daughter;fontSource=https%3A%2F%2Ffonts.googleapis.com%2Fcss%3Ffamily%3DArchitects%2BDaughter;fontSize=20;" vertex="1" parent="1">
                    <mxGeometry x="1440" y="470" width="40" height="20" as="geometry"/>
                </mxCell>
                <mxCell id="81" value="" style="shape=ellipse;strokeColor=none;fillColor=#C2C7D0;sketch=0;hachureGap=4;pointerEvents=0;fontFamily=Architects Daughter;fontSource=https%3A%2F%2Ffonts.googleapis.com%2Fcss%3Ffamily%3DArchitects%2BDaughter;fontSize=20;" vertex="1" parent="80">
                    <mxGeometry y="0.5" width="16" height="16" relative="1" as="geometry">
                        <mxPoint x="2" y="-8" as="offset"/>
                    </mxGeometry>
                </mxCell>
                <mxCell id="82" value="" style="html=1;shadow=0;dashed=0;shape=mxgraph.atlassian.x;strokeColor=#C2C7D0;strokeWidth=2;sketch=0;hachureGap=4;pointerEvents=0;fontFamily=Architects Daughter;fontSource=https%3A%2F%2Ffonts.googleapis.com%2Fcss%3Ffamily%3DArchitects%2BDaughter;fontSize=20;fillColor=none;" vertex="1" parent="80">
                    <mxGeometry x="1" y="0.5" width="6" height="6" relative="1" as="geometry">
                        <mxPoint x="-12" y="-3" as="offset"/>
                    </mxGeometry>
                </mxCell>
                <mxCell id="83" value="" style="fillColor=#F1F2F4;strokeColor=none;rounded=1;arcSize=50;sketch=0;hachureGap=4;pointerEvents=0;fontFamily=Architects Daughter;fontSource=https%3A%2F%2Ffonts.googleapis.com%2Fcss%3Ffamily%3DArchitects%2BDaughter;fontSize=20;" vertex="1" parent="1">
                    <mxGeometry x="1440" y="520" width="40" height="20" as="geometry"/>
                </mxCell>
                <mxCell id="84" value="" style="shape=ellipse;strokeColor=none;fillColor=#C2C7D0;sketch=0;hachureGap=4;pointerEvents=0;fontFamily=Architects Daughter;fontSource=https%3A%2F%2Ffonts.googleapis.com%2Fcss%3Ffamily%3DArchitects%2BDaughter;fontSize=20;" vertex="1" parent="83">
                    <mxGeometry y="0.5" width="16" height="16" relative="1" as="geometry">
                        <mxPoint x="2" y="-8" as="offset"/>
                    </mxGeometry>
                </mxCell>
                <mxCell id="85" value="" style="html=1;shadow=0;dashed=0;shape=mxgraph.atlassian.x;strokeColor=#C2C7D0;strokeWidth=2;sketch=0;hachureGap=4;pointerEvents=0;fontFamily=Architects Daughter;fontSource=https%3A%2F%2Ffonts.googleapis.com%2Fcss%3Ffamily%3DArchitects%2BDaughter;fontSize=20;fillColor=none;" vertex="1" parent="83">
                    <mxGeometry x="1" y="0.5" width="6" height="6" relative="1" as="geometry">
                        <mxPoint x="-12" y="-3" as="offset"/>
                    </mxGeometry>
                </mxCell>
                <mxCell id="86" value="" style="fillColor=#F1F2F4;strokeColor=none;rounded=1;arcSize=50;sketch=0;hachureGap=4;pointerEvents=0;fontFamily=Architects Daughter;fontSource=https%3A%2F%2Ffonts.googleapis.com%2Fcss%3Ffamily%3DArchitects%2BDaughter;fontSize=20;" vertex="1" parent="1">
                    <mxGeometry x="1440" y="580" width="40" height="20" as="geometry"/>
                </mxCell>
                <mxCell id="87" value="" style="shape=ellipse;strokeColor=none;fillColor=#C2C7D0;sketch=0;hachureGap=4;pointerEvents=0;fontFamily=Architects Daughter;fontSource=https%3A%2F%2Ffonts.googleapis.com%2Fcss%3Ffamily%3DArchitects%2BDaughter;fontSize=20;" vertex="1" parent="86">
                    <mxGeometry y="0.5" width="16" height="16" relative="1" as="geometry">
                        <mxPoint x="2" y="-8" as="offset"/>
                    </mxGeometry>
                </mxCell>
                <mxCell id="88" value="" style="html=1;shadow=0;dashed=0;shape=mxgraph.atlassian.x;strokeColor=#C2C7D0;strokeWidth=2;sketch=0;hachureGap=4;pointerEvents=0;fontFamily=Architects Daughter;fontSource=https%3A%2F%2Ffonts.googleapis.com%2Fcss%3Ffamily%3DArchitects%2BDaughter;fontSize=20;fillColor=none;" vertex="1" parent="86">
                    <mxGeometry x="1" y="0.5" width="6" height="6" relative="1" as="geometry">
                        <mxPoint x="-12" y="-3" as="offset"/>
                    </mxGeometry>
                </mxCell>
                <mxCell id="89" value="" style="fillColor=#F1F2F4;strokeColor=none;rounded=1;arcSize=50;sketch=0;hachureGap=4;pointerEvents=0;fontFamily=Architects Daughter;fontSource=https%3A%2F%2Ffonts.googleapis.com%2Fcss%3Ffamily%3DArchitects%2BDaughter;fontSize=20;" vertex="1" parent="1">
                    <mxGeometry x="1440" y="630" width="40" height="20" as="geometry"/>
                </mxCell>
                <mxCell id="90" value="" style="shape=ellipse;strokeColor=none;fillColor=#C2C7D0;sketch=0;hachureGap=4;pointerEvents=0;fontFamily=Architects Daughter;fontSource=https%3A%2F%2Ffonts.googleapis.com%2Fcss%3Ffamily%3DArchitects%2BDaughter;fontSize=20;" vertex="1" parent="89">
                    <mxGeometry y="0.5" width="16" height="16" relative="1" as="geometry">
                        <mxPoint x="2" y="-8" as="offset"/>
                    </mxGeometry>
                </mxCell>
                <mxCell id="91" value="" style="html=1;shadow=0;dashed=0;shape=mxgraph.atlassian.x;strokeColor=#C2C7D0;strokeWidth=2;sketch=0;hachureGap=4;pointerEvents=0;fontFamily=Architects Daughter;fontSource=https%3A%2F%2Ffonts.googleapis.com%2Fcss%3Ffamily%3DArchitects%2BDaughter;fontSize=20;fillColor=none;" vertex="1" parent="89">
                    <mxGeometry x="1" y="0.5" width="6" height="6" relative="1" as="geometry">
                        <mxPoint x="-12" y="-3" as="offset"/>
                    </mxGeometry>
                </mxCell>
                <mxCell id="92" value="" style="fillColor=#36B37E;strokeColor=none;rounded=1;arcSize=50;sketch=0;hachureGap=4;pointerEvents=0;fontFamily=Architects Daughter;fontSource=https%3A%2F%2Ffonts.googleapis.com%2Fcss%3Ffamily%3DArchitects%2BDaughter;fontSize=20;" vertex="1" parent="1">
                    <mxGeometry x="1442.5" y="410" width="35" height="20" as="geometry"/>
                </mxCell>
                <mxCell id="93" value="" style="shape=ellipse;strokeColor=none;fillColor=#ffffff;sketch=0;hachureGap=4;pointerEvents=0;fontFamily=Architects Daughter;fontSource=https%3A%2F%2Ffonts.googleapis.com%2Fcss%3Ffamily%3DArchitects%2BDaughter;fontSize=20;" vertex="1" parent="92">
                    <mxGeometry x="1" y="0.5" width="12" height="12" relative="1" as="geometry">
                        <mxPoint x="-14" y="-6" as="offset"/>
                    </mxGeometry>
                </mxCell>
                <mxCell id="94" value="" style="html=1;shadow=0;dashed=0;shape=mxgraph.atlassian.check;strokeColor=#ffffff;sketch=1;hachureGap=4;pointerEvents=0;fontFamily=Architects Daughter;fontSource=https%3A%2F%2Ffonts.googleapis.com%2Fcss%3Ffamily%3DArchitects%2BDaughter;fontSize=20;fillColor=none;" vertex="1" parent="92">
                    <mxGeometry y="0.5" width="6" height="5" relative="1" as="geometry">
                        <mxPoint x="4" y="-3" as="offset"/>
                    </mxGeometry>
                </mxCell>
                <mxCell id="95" value="Submit" style="html=1;shadow=0;dashed=0;shape=mxgraph.bootstrap.rrect;rSize=5;strokeColor=none;strokeWidth=1;fillColor=#33A64C;fontColor=#FFFFFF;whiteSpace=wrap;align=center;verticalAlign=middle;spacingLeft=0;fontStyle=0;fontSize=16;spacing=5;" vertex="1" parent="1">
                    <mxGeometry x="1090" y="240" width="70" height="30" as="geometry"/>
                </mxCell>
                <mxCell id="96" value="Submit" style="html=1;shadow=0;dashed=0;shape=mxgraph.bootstrap.rrect;rSize=5;strokeColor=none;strokeWidth=1;fillColor=#33A64C;fontColor=#FFFFFF;whiteSpace=wrap;align=center;verticalAlign=middle;spacingLeft=0;fontStyle=0;fontSize=16;spacing=5;" vertex="1" parent="1">
                    <mxGeometry x="1477.5" y="240" width="70" height="30" as="geometry"/>
                </mxCell>
                <mxCell id="99" value="3" style="html=1;shadow=0;dashed=0;shape=mxgraph.bootstrap.rrect;rSize=5;strokeColor=#CED4DA;strokeWidth=1;fillColor=#E9ECEF;fontColor=#505050;whiteSpace=wrap;align=left;verticalAlign=middle;spacingLeft=10;fontSize=14;" vertex="1" parent="1">
                    <mxGeometry x="890" y="240" width="90" height="30" as="geometry"/>
                </mxCell>
                <mxCell id="100" value="0" style="html=1;shadow=0;dashed=0;shape=mxgraph.bootstrap.rrect;rSize=5;strokeColor=#CED4DA;strokeWidth=1;fillColor=#E9ECEF;fontColor=#505050;whiteSpace=wrap;align=left;verticalAlign=middle;spacingLeft=10;fontSize=14;" vertex="1" parent="1">
                    <mxGeometry x="990" y="240" width="90" height="30" as="geometry"/>
                </mxCell>
                <mxCell id="101" value="21" style="html=1;shadow=0;dashed=0;shape=mxgraph.bootstrap.rrect;rSize=5;strokeColor=#CED4DA;strokeWidth=1;fillColor=#E9ECEF;fontColor=#505050;whiteSpace=wrap;align=left;verticalAlign=middle;spacingLeft=10;fontSize=14;" vertex="1" parent="1">
                    <mxGeometry x="1280" y="240" width="90" height="30" as="geometry"/>
                </mxCell>
                <mxCell id="102" value="19" style="html=1;shadow=0;dashed=0;shape=mxgraph.bootstrap.rrect;rSize=5;strokeColor=#CED4DA;strokeWidth=1;fillColor=#E9ECEF;fontColor=#505050;whiteSpace=wrap;align=left;verticalAlign=middle;spacingLeft=10;fontSize=14;" vertex="1" parent="1">
                    <mxGeometry x="1380" y="240" width="90" height="30" as="geometry"/>
                </mxCell>
            </root>
        </mxGraphModel>
    </diagram>
</mxfile>